<svg width="120" height="120" viewBox="0 0 120 120" fill="none" xmlns="http://www.w3.org/2000/svg">
<path d="M75 113.75H45C17.85 113.75 6.25 102.15 6.25 75V45C6.25 17.85 17.85 6.25 45 6.25H75C102.15 6.25 113.75 17.85 113.75 45V75C113.75 102.15 102.15 113.75 75 113.75ZM45 13.75C21.95 13.75 13.75 21.95 13.75 45V75C13.75 98.05 21.95 106.25 45 106.25H75C98.05 106.25 106.25 98.05 106.25 75V45C106.25 21.95 98.05 13.75 75 13.75H45Z" fill="#292D32"/>
<path d="M36.6501 76.2C35.8501 76.2 35.0501 75.95 34.3501 75.4C32.7001 74.15 32.4001 71.8 33.6501 70.15L45.5501 54.7C47.0001 52.85 49.0501 51.65 51.4001 51.35C53.7001 51.05 56.0501 51.7 57.9001 53.15L67.0501 60.35C67.4001 60.65 67.7501 60.65 68.0001 60.6C68.2001 60.6 68.5501 60.5 68.8501 60.1L80.4001 45.2C81.6501 43.55 84.0501 43.25 85.6501 44.55C87.3001 45.8 87.6001 48.15 86.3001 49.8L74.7501 64.7C73.3001 66.55 71.2501 67.75 68.9001 68C66.5501 68.3 64.2501 67.65 62.4001 66.2L53.2501 59C52.9001 58.7 52.5001 58.7 52.3001 58.75C52.1001 58.75 51.7501 58.85 51.4501 59.25L39.5501 74.7C38.9001 75.7 37.8001 76.2 36.6501 76.2Z" fill="#292D32"/>
</svg>
