<svg width="120" height="120" viewBox="0 0 120 120" fill="none" xmlns="http://www.w3.org/2000/svg">
<path d="M80.95 10H39.05C20.85 10 10 20.85 10 39.05V80.9C10 99.15 20.85 110 39.05 110H80.9C99.1 110 109.95 99.15 109.95 80.95V39.05C110 20.85 99.15 10 80.95 10ZM86.3 49.8L74.75 64.7C73.3 66.55 71.25 67.75 68.9 68C66.55 68.3 64.25 67.65 62.4 66.2L53.25 59C52.9 58.7 52.5 58.7 52.3 58.75C52.1 58.75 51.75 58.85 51.45 59.25L39.55 74.7C38.8 75.65 37.7 76.15 36.6 76.15C35.8 76.15 35 75.9 34.3 75.35C32.65 74.1 32.35 71.75 33.6 70.1L45.5 54.65C46.95 52.8 49 51.6 51.35 51.3C53.65 51 56 51.65 57.85 53.1L67 60.3C67.35 60.6 67.7 60.6 67.95 60.55C68.15 60.55 68.5 60.45 68.8 60.05L80.35 45.15C81.6 43.5 84 43.2 85.6 44.5C87.25 45.85 87.55 48.2 86.3 49.8Z" fill="#292D32"/>
</svg>
