<svg width="16" height="19" viewBox="0 0 16 19" fill="none" xmlns="http://www.w3.org/2000/svg">
<path d="M14.0327 4.8742H1.96726C1.89912 4.8742 1.83415 4.90226 1.78728 4.95159C1.74009 5.0013 1.71559 5.06769 1.71914 5.13583L2.35313 17.3689C2.38119 17.9131 2.8299 18.3394 3.37513 18.3394H12.6248C13.1701 18.3394 13.6188 17.9131 13.6468 17.3689L14.2808 5.13583C14.2844 5.06769 14.2599 5.0013 14.2127 4.95159C14.1659 4.90226 14.1009 4.8742 14.0327 4.8742ZM4.06135 7.34034C4.05676 7.17387 4.11746 7.01516 4.23247 6.89376C4.34748 6.77235 4.50262 6.70279 4.66909 6.69781C5.01554 6.6907 5.30309 6.96261 5.31304 7.30627L5.54344 15.8935C5.54841 16.0597 5.48771 16.2187 5.37232 16.3405C5.25731 16.4616 5.10184 16.5311 4.93498 16.5361H4.91655C4.75643 16.5361 4.60484 16.4754 4.48737 16.3639C4.36634 16.2489 4.29673 16.0938 4.29213 15.9276L4.06135 7.34034ZM7.37416 15.901V7.31261C7.37416 6.9672 7.65498 6.68638 8 6.68638C8.34502 6.68638 8.62584 6.9672 8.62584 7.31261V15.901C8.62584 16.2467 8.34502 16.5279 8 16.5279C7.65498 16.5279 7.37416 16.2467 7.37416 15.901ZM11.7079 15.9269C11.7033 16.0937 11.6337 16.2489 11.5126 16.3639C11.3952 16.4753 11.2436 16.536 11.0834 16.536H11.0639C10.8975 16.5311 10.7423 16.4615 10.6276 16.3401C10.5122 16.2184 10.4515 16.0597 10.4565 15.8928L10.6869 7.30698C10.6969 6.96299 10.9823 6.68928 11.3266 6.69781H11.3309C11.4973 6.70279 11.6525 6.77235 11.7675 6.89376C11.8825 7.01516 11.9432 7.17387 11.9386 7.34034L11.7079 15.9269ZM15.2734 2.96041V3.61929H0.726562V2.96041C0.726562 2.59691 1.02226 2.30121 1.38577 2.30121H6.1707C6.29741 2.30121 6.40394 2.20573 6.41778 2.07967C6.50621 1.27101 7.18636 0.661133 8 0.661133C8.81364 0.661133 9.49379 1.27101 9.58222 2.07967C9.59606 2.20567 9.70253 2.30121 9.8293 2.30121H14.6142C14.9777 2.30121 15.2734 2.59691 15.2734 2.96041Z" fill="white"/>
</svg>
