<svg width="120" height="120" viewBox="0 0 120 120" fill="none" xmlns="http://www.w3.org/2000/svg">
<path d="M104.15 40.05L71.4001 13.85C65.0001 8.75 55.0001 8.7 48.6501 13.8L15.9001 40.05C11.2001 43.8 8.35006 51.3 9.35006 57.2L15.6501 94.9C17.1001 103.35 24.9501 110 33.5001 110H86.5001C94.9501 110 102.95 103.2 104.4 94.85L110.7 57.15C111.6 51.3 108.75 43.8 104.15 40.05ZM63.7501 90C63.7501 92.05 62.0501 93.75 60.0001 93.75C57.9501 93.75 56.2501 92.05 56.2501 90V75C56.2501 72.95 57.9501 71.25 60.0001 71.25C62.0501 71.25 63.7501 72.95 63.7501 75V90Z" fill="#292D32"/>
</svg>
