<svg width="120" height="120" viewBox="0 0 120 120" fill="none" xmlns="http://www.w3.org/2000/svg">
<path d="M60 93.75C57.95 93.75 56.25 92.05 56.25 90V75C56.25 72.95 57.95 71.25 60 71.25C62.05 71.25 63.75 72.95 63.75 75V90C63.75 92.05 62.05 93.75 60 93.75Z" fill="#292D32"/>
<path d="M88 112.8H32C22.9 112.8 14.6 105.8 13.1 96.85L6.45005 57C5.35005 50.8 8.40005 42.85 13.35 38.9L48 11.15C54.7001 5.75 65.25 5.8 72 11.2L106.65 38.9C111.55 42.85 114.55 50.8 113.55 57L106.9 96.8C105.4 105.65 96.9 112.8 88 112.8ZM59.95 14.65C57.3 14.65 54.65 15.45 52.7001 17L18.05 44.8C15.25 47.05 13.25 52.25 13.85 55.8L20.5 95.6C21.4 100.85 26.65 105.3 32 105.3H88C93.35 105.3 98.6 100.85 99.5 95.55L106.15 55.75C106.7 52.25 104.7 46.95 101.95 44.75L67.3 17.05C65.3 15.45 62.6 14.65 59.95 14.65Z" fill="#292D32"/>
</svg>
