<svg width="120" height="120" viewBox="0 0 120 120" fill="none" xmlns="http://www.w3.org/2000/svg">
<path d="M88.7 113.75H31.3C18.85 113.75 8.75 103.65 8.75 91.2V57.55C8.75 45.1 18.85 35 31.3 35H88.7C101.15 35 111.25 45.1 111.25 57.55V64.7501C111.25 66.8001 109.55 68.5001 107.5 68.5001H97.4C95.65 68.5001 94.05 69.15 92.9 70.35L92.85 70.4001C91.45 71.7501 90.8 73.5999 90.95 75.4999C91.25 78.7999 94.4 81.4499 98 81.4499H107.5C109.55 81.4499 111.25 83.1499 111.25 85.1999V91.1499C111.25 103.65 101.15 113.75 88.7 113.75ZM31.3 42.5C23 42.5 16.25 49.25 16.25 57.55V91.2C16.25 99.5 23 106.25 31.3 106.25H88.7C97 106.25 103.75 99.5 103.75 91.2V88.9999H98C90.45 88.9999 84.05 83.4 83.45 76.2C83.05 72.1 84.55 68.0501 87.55 65.1001C90.15 62.4501 93.65 61.0001 97.4 61.0001H103.75V57.55C103.75 49.25 97 42.5 88.7 42.5H31.3Z" fill="#292D32"/>
<path d="M12.5 65.8C10.45 65.8 8.75 64.1 8.75 62.05V39.2003C8.75 31.7503 13.45 25 20.4 22.35L60.1 7.35003C64.2 5.80003 68.75 6.35027 72.3 8.85027C75.9 11.3503 78 15.4002 78 19.7502V38.7502C78 40.8002 76.3 42.5002 74.25 42.5002C72.2 42.5002 70.5 40.8002 70.5 38.7502V19.7502C70.5 17.8502 69.6 16.1002 68 15.0002C66.4 13.9002 64.5 13.6501 62.7 14.3501L23 29.3501C18.95 30.9001 16.2 34.8503 16.2 39.2003V62.05C16.25 64.15 14.55 65.8 12.5 65.8Z" fill="#292D32"/>
<path d="M97.9999 88.9996C90.4499 88.9996 84.0499 83.3996 83.4499 76.1996C83.0499 72.0496 84.5499 67.9997 87.5499 65.0497C90.0999 62.4497 93.5999 60.9998 97.3499 60.9998H107.75C112.7 61.1498 116.5 65.0495 116.5 69.8495V80.1498C116.5 84.9498 112.7 88.8496 107.9 88.9996H97.9999ZM107.65 68.4998H97.3999C95.6499 68.4998 94.0499 69.1497 92.8999 70.3497C91.4499 71.7497 90.7499 73.6496 90.9499 75.5496C91.2499 78.8496 94.3999 81.4996 97.9999 81.4996H107.8C108.45 81.4996 109.05 80.8998 109.05 80.1498V69.8495C109.05 69.0995 108.45 68.5498 107.65 68.4998Z" fill="#292D32"/>
<path d="M70 63.75H35C32.95 63.75 31.25 62.05 31.25 60C31.25 57.95 32.95 56.25 35 56.25H70C72.05 56.25 73.75 57.95 73.75 60C73.75 62.05 72.05 63.75 70 63.75Z" fill="#292D32"/>
</svg>
