<svg width="120" height="120" viewBox="0 0 120 120" fill="none" xmlns="http://www.w3.org/2000/svg">
<path d="M60 52.6C57.95 52.6 56.25 50.9 56.25 48.85V32.2C56.25 30.15 57.95 28.45 60 28.45C62.05 28.45 63.75 30.15 63.75 32.2V48.85C63.75 50.95 62.05 52.6 60 52.6Z" fill="#292D32"/>
<path d="M60.1001 101.75C47.2001 101.75 34.3501 99.7 22.1001 95.6C17.5501 94.1 14.1001 90.85 12.6001 86.75C11.1001 82.65 11.6001 77.95 14.0501 73.85L20.4001 63.25C21.8001 60.9 23.0501 56.5 23.0501 53.75V43.25C23.0501 22.8 39.6501 6.20001 60.1001 6.20001C80.5501 6.20001 97.1501 22.8 97.1501 43.25V53.75C97.1501 56.45 98.4001 60.9 99.8001 63.25L106.15 73.85C108.5 77.75 108.9 82.4 107.35 86.65C105.8 90.9 102.4 94.15 98.1001 95.6C85.8501 99.75 73.0001 101.75 60.1001 101.75ZM60.1001 13.75C43.8001 13.75 30.5501 27 30.5501 43.3V53.8C30.5501 57.85 28.9501 63.7 26.8501 67.15L20.5001 77.8C19.2001 79.95 18.9001 82.25 19.6501 84.25C20.4001 86.25 22.1001 87.75 24.5001 88.55C47.5001 96.2 72.8001 96.2 95.8001 88.55C97.9501 87.85 99.6001 86.25 100.35 84.15C101.15 82.05 100.9 79.75 99.7501 77.8L93.4001 67.2C91.3001 63.75 89.7001 57.9 89.7001 53.85V43.35C89.6501 27 76.4001 13.75 60.1001 13.75Z" fill="#292D32"/>
<path d="M60.0001 114.5C54.6501 114.5 49.4001 112.3 45.6001 108.5C41.8001 104.7 39.6001 99.45 39.6001 94.1H47.1001C47.1001 97.5 48.5001 100.8 50.9001 103.2C53.3001 105.6 56.6001 107 60.0001 107C67.1001 107 72.9001 101.2 72.9001 94.1H80.4001C80.4001 105.35 71.2501 114.5 60.0001 114.5Z" fill="#292D32"/>
</svg>
