<svg width="120" height="120" viewBox="0 0 120 120" fill="none" xmlns="http://www.w3.org/2000/svg">
<path d="M100.95 70.3L95.3 60.9C94.05 58.85 92.95 54.9 92.95 52.5V43.15C92.95 25 78.2 10.25 60.1 10.25C41.95 10.3 27.2 25 27.2 43.15V52.45C27.2 54.85 26.1 58.8 24.9 60.85L19.25 70.25C17.1 73.9 16.6 78.05 17.95 81.65C19.3 85.3 22.35 88.2 26.35 89.5C31.75 91.3 37.2 92.6 42.75 93.55C43.3 93.65 43.85 93.7 44.4 93.8C45.1 93.9 45.85 94 46.6 94.1C47.9 94.3 49.2 94.45 50.55 94.55C53.7 94.85 56.9 95 60.1 95C63.25 95 66.4 94.85 69.5 94.55C70.65 94.45 71.8 94.35 72.9 94.2C73.8 94.1 74.7 94 75.6 93.85C76.15 93.8 76.7 93.7 77.25 93.6C82.85 92.7 88.4 91.3 93.8 89.5C97.65 88.2 100.6 85.3 102 81.6C103.4 77.85 103 73.75 100.95 70.3ZM63.75 50C63.75 52.1 62.05 53.8 59.95 53.8C57.85 53.8 56.15 52.1 56.15 50V34.5C56.15 32.4 57.85 30.7 59.95 30.7C62.05 30.7 63.75 32.4 63.75 34.5V50Z" fill="#292D32"/>
<path d="M74.1499 100.05C72.0499 105.85 66.4999 110 59.9999 110C56.0499 110 52.1499 108.4 49.3999 105.55C47.7999 104.05 46.5999 102.05 45.8999 100C46.5499 100.1 47.1999 100.15 47.8999 100.25C49.0499 100.4 50.2499 100.55 51.4499 100.65C54.2999 100.9 57.1999 101.05 60.0999 101.05C62.9499 101.05 65.7999 100.9 68.5999 100.65C69.6499 100.55 70.6999 100.5 71.6999 100.35C72.4999 100.25 73.2999 100.15 74.1499 100.05Z" fill="#292D32"/>
</svg>
