<svg width="120" height="120" viewBox="0 0 120 120" fill="none" xmlns="http://www.w3.org/2000/svg">
<g clip-path="url(#clip0_9759_1897)">
<path d="M20.6647 85.791L22.6164 87.3443L20.9703 87.2136C23.8587 99.4895 31.9841 107.086 32.9831 98.5071C33.1968 96.6611 32.9892 94.7938 32.4874 92.9607L31.5287 93.8054L32.0039 91.4378C28.9094 82.8342 20.1005 75.3657 20.1005 75.3657C19.7652 78.9916 20.0245 82.5339 20.6639 85.7918L20.6647 85.791Z" fill="#D3D3D3"/>
<path d="M31.5918 102.042L27.2208 91.2C26.484 89.3966 25.7868 87.5772 25.0007 85.7912C24.2122 84.0098 23.2847 82.2702 22.0469 80.7603C23.2527 82.2961 24.1392 84.0471 24.8881 85.8399C25.6348 87.6365 26.2939 89.4711 26.9927 91.2897L31.1348 102.221L31.5925 102.043L31.5918 102.042Z" fill="white"/>
<path d="M29.7032 101.311C29.209 97.5607 29.1352 91.6873 27.4876 91.7337C25.84 91.7801 26.7053 94.3925 25.4873 94.2161C24.2693 94.0397 24.2267 92.256 24.4137 89.0658C24.6 85.8763 22.059 84.2972 20.6342 84.7731C19.2094 85.2491 21.6675 89.6953 20.4639 90.648C19.2604 91.6006 19.1843 86.0953 16.2495 85.1168C13.3148 84.1383 12.2131 84.8119 13.4744 86.7301C14.7358 88.6484 15.4482 90.0329 13.7512 90.172C12.0534 90.3112 9.3703 88.7754 9.02132 91.07C8.67234 93.3646 12.7468 92.3541 12.8738 94.4739C13.0008 96.5943 9.71548 97.1342 9.75045 98.3818C9.78466 99.6295 12.6153 100.158 14.2515 98.8882C15.8876 97.6185 17.1946 96.3396 18.0492 97.6808C18.9038 99.022 15.7242 99.1893 15.4162 100.897C15.1083 102.605 20.5187 101.75 22.6718 100.495C24.825 99.241 24.6456 100.552 23.5599 101.509C21.6842 103.16 24.2951 103.112 26.059 102.123C27.8518 101.116 30.0004 103.553 29.7047 101.311L29.7032 101.311Z" fill="#E6E6E6"/>
<path d="M26.8178 97.6324C26.9227 97.5008 26.9759 97.3396 27.0101 97.1868C27.0177 97.1503 27.0261 97.1146 27.0352 97.0796C27.0991 96.8287 27.1546 96.5771 27.1987 96.3292C27.3051 95.7445 27.3956 95.1735 27.3401 94.6215C27.334 94.5615 27.2808 94.5166 27.22 94.5235C27.1599 94.5296 27.1158 94.5835 27.1219 94.6436C27.1744 95.1667 27.0862 95.721 26.9828 96.2904C26.9394 96.5322 26.8847 96.7801 26.8223 97.0256C26.8132 97.0621 26.8048 97.0994 26.7957 97.1389C26.7676 97.2636 26.7296 97.3822 26.6657 97.4742C26.2559 97.0416 25.8119 96.6288 25.3473 96.2311C25.3458 96.2296 25.3466 96.2266 25.3443 96.225C25.342 96.2228 25.3382 96.2235 25.3359 96.2212C24.8463 95.8031 24.3377 95.3978 23.7925 95.0237C23.1987 94.6162 22.5973 94.2984 22.0408 94.0201C22.316 93.7905 22.4658 93.4423 22.5692 93.1131C22.9493 91.8966 23.0641 90.5851 22.9022 89.3207C22.8946 89.2614 22.8459 89.2226 22.779 89.2257C22.719 89.2333 22.6764 89.288 22.684 89.3488C22.8421 90.5828 22.7296 91.8616 22.3601 93.0485C22.2575 93.3754 22.1115 93.7274 21.8286 93.9122C21.7777 93.8871 21.7184 93.8544 21.669 93.8301C20.2054 93.1215 18.5753 92.4129 16.8509 91.924C16.9034 91.3294 16.9558 90.7159 16.8273 90.1144C16.7794 89.8924 16.7087 89.6773 16.6396 89.4689L16.3058 88.4638C16.2868 88.4068 16.2259 88.3756 16.1666 88.3939C16.1096 88.4129 16.0784 88.4752 16.0967 88.533L16.4305 89.5381C16.4981 89.7404 16.5673 89.9495 16.6122 90.1601C16.7308 90.7143 16.6852 91.296 16.635 91.8609C15.4337 91.5355 14.1883 91.3195 12.9171 91.3028C12.857 91.3028 12.8076 91.3507 12.8061 91.4115C12.8061 91.4708 12.8532 91.5203 12.9125 91.5225H12.9148C14.8703 91.5393 16.7673 92.0327 18.5282 92.6965C18.5008 92.8242 18.4324 92.9474 18.3609 93.0652C17.9404 93.7548 17.5063 94.468 16.8829 94.9933C16.6882 95.1576 16.4594 95.3165 16.1826 95.4784C15.471 95.8958 14.7015 96.1939 13.8956 96.3642C13.8363 96.3763 13.7983 96.4349 13.8105 96.4942C13.8211 96.5444 13.8652 96.5801 13.9146 96.5809C13.923 96.5809 13.9321 96.5809 13.9405 96.5786C14.7692 96.4037 15.5614 96.0965 16.2929 95.6677C16.5802 95.4989 16.819 95.3332 17.0235 95.1614C17.6736 94.6124 18.1176 93.884 18.5464 93.1792C18.6186 93.0606 18.6893 92.9253 18.7289 92.7763C19.7256 93.1618 20.6791 93.5959 21.5709 94.0277C22.2073 94.3357 22.9539 94.7166 23.6663 95.2047C24.1727 95.5514 24.6463 95.9262 25.104 96.3125C24.4928 96.9412 23.7796 97.6392 22.9486 98.1608C22.3183 98.5569 21.342 99.0176 20.2442 98.9857C20.2252 98.9857 20.1963 98.9872 20.1856 98.9834C20.1256 98.9819 20.0754 99.0283 20.0731 99.0883C20.0708 99.1484 20.1172 99.2001 20.178 99.2031C20.1978 99.2039 20.2176 99.2047 20.2373 99.2054C21.152 99.232 22.129 98.9355 23.0657 98.347C23.921 97.8095 24.6494 97.0963 25.2721 96.4562C27.3781 98.2779 28.9329 100.482 29.7115 102.82C29.7259 102.865 29.7678 102.894 29.8119 102.895C29.824 102.895 29.8369 102.894 29.8499 102.889C29.9077 102.87 29.9381 102.808 29.9191 102.751C29.3123 100.927 28.2456 99.1819 26.817 97.6331L26.8178 97.6324Z" fill="#FDFDFD"/>
<g style="mix-blend-mode:multiply">
<path d="M54.3383 111.167C83.3655 111.167 106.897 108.94 106.897 106.194C106.897 103.447 83.3655 101.221 54.3383 101.221C25.3111 101.221 1.77991 103.447 1.77991 106.194C1.77991 108.94 25.3111 111.167 54.3383 111.167Z" fill="#E6E7E8"/>
</g>
<path d="M40.8102 68.0395C40.4871 67.5636 40.1556 67.0968 39.8256 66.6535L40.1693 66.398C40.5031 66.8459 40.8376 67.3172 41.1645 67.7993L40.8102 68.0395ZM39.3976 66.0893C39.0448 65.6339 38.6836 65.1914 38.324 64.7748L38.6479 64.495C39.0121 64.9177 39.3786 65.3655 39.7359 65.827L39.3976 66.0893ZM37.8557 64.2441C37.4702 63.8176 37.0748 63.407 36.681 63.023L36.9798 62.7166C37.3797 63.1067 37.7819 63.5241 38.1735 63.9575L37.8557 64.2448V64.2441ZM36.1686 62.5372C35.7481 62.1502 35.3155 61.7799 34.8836 61.437L35.1497 61.1017C35.59 61.4507 36.0309 61.8278 36.459 62.2224L36.1693 62.5372H36.1686ZM34.3233 61.0082C33.8671 60.6707 33.3965 60.3521 32.9243 60.0609L33.1494 59.6967C33.6314 59.994 34.1119 60.3194 34.578 60.6646L34.3233 61.009V61.0082ZM32.3184 59.702C31.831 59.4253 31.3246 59.1668 30.8145 58.9341L30.9924 58.5448C31.514 58.7828 32.0317 59.0474 32.5305 59.3302L32.3191 59.7028L32.3184 59.702ZM30.1682 58.6536C29.6581 58.443 29.1236 58.2476 28.5792 58.0742L28.7092 57.6667C29.2642 57.8438 29.8101 58.043 30.3309 58.2582L30.1675 58.6536H30.1682ZM27.9033 57.8697C27.3787 57.7199 26.8404 57.5853 26.2572 57.4584L26.3484 57.0402C26.9407 57.1687 27.4874 57.3055 28.0211 57.4584L27.9033 57.8697ZM25.563 57.3154C25.0605 57.2173 24.5275 57.1231 23.8851 57.0204L23.9527 56.5977C24.5997 56.7019 25.138 56.7961 25.6452 56.8957L25.563 57.3162V57.3154ZM23.1818 56.9102L22.5903 56.8197C22.22 56.7634 21.8528 56.7079 21.4893 56.6502L21.5562 56.2274C21.9197 56.2852 22.2854 56.3407 22.6549 56.397L23.2472 56.4874L23.1825 56.9102H23.1818ZM20.7822 56.5346C20.1451 56.4259 19.5924 56.3187 19.0913 56.2061L19.1848 55.7887C19.6783 55.8997 20.2242 56.0054 20.8537 56.1126L20.7822 56.5346ZM18.3903 56.0373C17.795 55.883 17.2544 55.715 16.7382 55.5226L16.888 55.1212C17.3905 55.3082 17.9174 55.4724 18.4983 55.623L18.3911 56.0373H18.3903ZM16.0676 55.2527C15.5285 55.0193 15.0108 54.7501 14.5264 54.4544L14.75 54.0894C15.2168 54.3753 15.7171 54.6346 16.2371 54.8604L16.0668 55.2535L16.0676 55.2527ZM13.9212 54.0575C13.4552 53.7313 13.002 53.3626 12.5763 52.9634L12.869 52.6509C13.2803 53.0364 13.7167 53.3922 14.1668 53.707L13.9212 54.0575ZM12.0631 52.454C11.7399 52.1157 11.4229 51.7477 11.1195 51.3607C11.0602 51.2847 11.0009 51.2086 10.9431 51.1326L11.283 50.8726C11.34 50.9479 11.3986 51.0224 11.4571 51.0976C11.7513 51.474 12.0593 51.8313 12.3725 52.159L12.0631 52.4548V52.454ZM10.5136 50.5555C10.1729 50.0857 9.84753 49.6044 9.54644 49.1262L9.90911 48.8981C10.2049 49.3687 10.525 49.8424 10.8603 50.3046L10.5136 50.5555ZM9.17237 48.5111C8.87662 48.0093 8.60062 47.4976 8.35048 46.9912L8.73444 46.8019C8.97926 47.2991 9.25069 47.8009 9.54112 48.2936L9.17237 48.5111ZM8.04332 46.3396C7.8023 45.8067 7.58486 45.2661 7.39782 44.7346L7.80154 44.5925C7.98478 45.1125 8.19766 45.6417 8.43336 46.1632L8.04332 46.3396ZM7.17125 44.0496C7.09294 43.7972 7.02147 43.544 6.95532 43.2923C6.77133 43.3562 6.58885 43.4079 6.41018 43.449L6.31514 43.0315C6.49077 42.992 6.67021 42.9396 6.85268 42.8749C6.82759 42.7677 6.80402 42.6613 6.78121 42.5556C6.76829 42.4933 6.75536 42.4317 6.7432 42.3701L7.16289 42.2865C7.17505 42.3465 7.18721 42.4066 7.20014 42.4674C7.21763 42.5503 7.23587 42.6332 7.25488 42.716C7.44876 42.6309 7.64568 42.5328 7.84412 42.4218L8.05244 42.7959C7.81827 42.9259 7.58638 43.0407 7.35752 43.138C7.42443 43.3988 7.49894 43.6618 7.58029 43.9234L7.17125 44.0496ZM5.6666 43.5516C5.00514 43.5805 4.41438 43.4277 3.9103 43.0977L4.14523 42.7396C4.57252 43.0194 5.07813 43.1486 5.64836 43.1243L5.6666 43.5516ZM8.67665 42.4119L8.43716 42.0568C8.88726 41.7535 9.3252 41.3992 9.73956 41.0031L10.0353 41.3125C9.60347 41.7253 9.14576 42.0949 8.67589 42.4119H8.67665ZM3.3317 42.5959C2.97284 42.1967 2.68164 41.6714 2.46572 41.0342L2.87096 40.8966C3.06788 41.4782 3.33018 41.9534 3.64951 42.3093L3.33094 42.5951L3.3317 42.5959ZM7.04352 41.5931L6.62003 41.6562C6.53107 41.0624 6.48317 40.4784 6.47557 39.9227L6.90362 39.9173C6.91046 40.4549 6.9576 41.0183 7.04352 41.5938V41.5931ZM10.5455 40.7917L10.23 40.5028C10.623 40.0732 10.9659 39.6269 11.2488 39.176L11.6114 39.4034C11.3149 39.8763 10.9568 40.3431 10.5462 40.7917H10.5455ZM11.9711 38.7632L11.5879 38.5724C11.8692 38.0075 12.0235 37.4866 12.0471 37.0251L12.4744 37.0472C12.4478 37.568 12.2782 38.1451 11.9711 38.7624V38.7632ZM2.26728 40.3271L2.22014 40.1127C2.11445 39.6125 2.0293 39.1114 1.96848 38.6233L2.39349 38.5701C2.45279 39.046 2.53566 39.5357 2.63907 40.0238L2.68468 40.2306L2.26728 40.3264V40.3271ZM6.91731 39.2179L6.49001 39.1943C6.52423 38.5724 6.61395 37.9892 6.75688 37.4608L7.17049 37.5726C7.03515 38.0721 6.95076 38.6256 6.91807 39.2179H6.91731ZM11.9817 36.3903C11.8783 36.0307 11.6533 35.7417 11.3142 35.5304C11.1925 35.4543 11.0693 35.3859 10.9484 35.3266L11.1378 34.9427C11.2708 35.0088 11.4062 35.0841 11.54 35.1669C11.9726 35.4353 12.2592 35.8071 12.393 36.2717L11.9817 36.3903ZM7.38718 36.921L6.9903 36.7605C7.2412 36.1386 7.57421 35.6361 7.97945 35.2665L8.26761 35.5828C7.91027 35.909 7.61375 36.3591 7.38642 36.921H7.38718ZM2.32126 37.8714L1.89473 37.9056C1.84759 37.3224 1.83314 36.74 1.85139 36.1751L2.27944 36.1888C2.26119 36.737 2.27564 37.3034 2.32202 37.8706L2.32126 37.8714ZM10.3235 35.0894C9.77834 34.9472 9.26057 34.9898 8.80287 35.2148L8.61431 34.8301C9.16325 34.561 9.7867 34.507 10.4307 34.675L10.3227 35.0894H10.3235ZM2.31974 35.4893L1.89321 35.4536C1.94186 34.8735 2.02702 34.2964 2.14639 33.7383L2.56532 33.828C2.44975 34.3686 2.36688 34.9275 2.31974 35.4893ZM2.73106 33.1476L2.31822 33.035C2.46952 32.4793 2.66035 31.9265 2.88464 31.3943L3.27924 31.5608C3.06256 32.0763 2.8778 32.61 2.73106 33.1483V33.1476ZM3.56892 30.9214L3.1842 30.7344C3.43359 30.2212 3.72174 29.7133 4.04107 29.2244L4.39993 29.4586C4.09049 29.933 3.81146 30.4249 3.56968 30.9222L3.56892 30.9214ZM4.79757 28.8792L4.45087 28.6283C4.78313 28.1699 5.15188 27.7175 5.54647 27.2833L5.86352 27.5715C5.47957 27.9942 5.1207 28.4344 4.79757 28.88V28.8792ZM6.3486 27.0598L6.04448 26.7587C6.44136 26.358 6.87017 25.9634 7.32027 25.5863L7.5955 25.9148C7.15528 26.2835 6.73635 26.669 6.34936 27.0606L6.3486 27.0598ZM8.14444 25.47L7.88137 25.1324C8.32539 24.7865 8.79906 24.4474 9.2887 24.1243L9.5244 24.4816C9.04464 24.7987 8.5801 25.1309 8.14444 25.47ZM10.1212 24.1007L9.89619 23.7365C10.3775 23.4392 10.8831 23.1511 11.3985 22.8796L11.5977 23.2583C11.0906 23.5251 10.5941 23.8087 10.1205 24.1007H10.1212ZM12.2303 22.9359L12.041 22.552C12.5542 22.2988 13.0841 22.0578 13.6148 21.8357L13.7798 22.2303C13.2567 22.4493 12.7352 22.6865 12.2303 22.9359ZM14.439 21.965L14.2847 21.5658C15.0062 21.2868 15.5749 21.1013 15.9247 20.9956L16.0486 21.4054C15.7057 21.5088 15.1484 21.6905 14.439 21.965Z" fill="white"/>
<path d="M17.1754 19.379L20.3557 24.1788L31.4402 17.5269L19.4395 17.8789L17.1754 19.379Z" fill="#C5D7ED"/>
<path d="M18.4223 16.3447L31.4402 17.527L17.1754 19.3791L18.4223 16.3447Z" fill="#D4ECF8"/>
<path d="M31.4402 17.5269L17.3221 24.1164L17.0925 20.6426L31.4402 17.5269Z" fill="#D4ECF8"/>
<path d="M95.4804 88.9321C95.7087 85.9646 98.2516 84.8263 99.5078 85.4438C100.764 86.062 97.9372 89.8589 98.9286 90.8892C99.92 91.919 100.681 86.8463 103.513 86.311C106.345 85.7758 107.277 86.5354 105.872 88.1479C104.467 89.7606 103.636 90.9499 105.185 91.2905C106.735 91.6318 109.405 90.5502 109.439 92.7124C109.473 94.8742 105.839 93.4307 105.456 95.3716C105.074 97.3133 108.038 98.2234 107.85 99.3706C107.661 100.518 104.982 100.651 103.631 99.2739C102.28 97.8972 101.234 96.5529 100.277 97.6841C99.3201 98.8154 102.234 99.368 102.305 100.983C102.375 102.598 97.4872 101.131 95.6572 99.7026C93.8271 98.2748 93.8282 99.508 94.7109 100.527C96.2347 102.286 93.8309 101.914 92.3271 100.78C91.1846 99.9174 89.6185 100.805 89.1308 100.46C90.1632 98.6047 91.7682 96.9486 93.7607 95.6479C94.2548 96.3169 94.8374 97.0668 95.5595 97.6704C96.3509 98.3311 97.2157 98.7264 98.0634 98.8169C98.0817 98.8184 98.1008 98.8212 98.1191 98.8228C98.1753 98.828 98.2251 98.7862 98.2304 98.73C98.235 98.6745 98.1941 98.6247 98.1386 98.6187C98.1279 98.6209 98.1021 98.6153 98.0839 98.6138C97.0667 98.505 96.2226 97.957 95.6904 97.5122C94.9895 96.9261 94.4175 96.1924 93.9326 95.5356C94.4031 95.2362 94.8876 94.9508 95.3984 94.6938C96.1168 94.332 96.8547 94.0741 97.4804 93.8696C98.3578 93.583 99.2921 93.3012 100.261 93.0708C100.278 93.2129 100.327 93.3468 100.379 93.4653C100.687 94.1694 101.006 94.8983 101.537 95.4868C101.704 95.6714 101.905 95.8549 102.148 96.0464C102.769 96.5343 103.462 96.9169 104.205 97.1821C104.212 97.1851 104.221 97.1862 104.228 97.187C104.275 97.1916 104.32 97.1652 104.336 97.1196C104.354 97.0664 104.327 97.0078 104.273 96.9888C103.551 96.7311 102.879 96.3595 102.274 95.8853C102.039 95.7005 101.847 95.5247 101.688 95.3491C101.179 94.7857 100.867 94.0729 100.565 93.3833C100.514 93.2655 100.467 93.1435 100.458 93.022C102.166 92.6297 103.98 92.4125 105.787 92.6421H105.789C105.844 92.6482 105.894 92.6079 105.901 92.5532C105.908 92.497 105.868 92.4458 105.812 92.439C104.637 92.296 103.46 92.339 102.31 92.4888C102.336 91.9611 102.367 91.4179 102.546 90.9214C102.613 90.733 102.704 90.5484 102.791 90.3706L103.226 89.4849C103.25 89.4347 103.228 89.3732 103.178 89.3481C103.126 89.324 103.066 89.3449 103.041 89.395L102.607 90.2808C102.518 90.4647 102.424 90.6539 102.352 90.853C102.159 91.3919 102.129 91.9651 102.103 92.52C100.451 92.7542 98.8569 93.2047 97.4169 93.6753C97.3676 93.6913 97.3088 93.7143 97.2587 93.731C97.021 93.5258 96.9309 93.1822 96.8769 92.8677C96.6838 91.7257 96.7406 90.5308 97.041 89.4116C97.0554 89.3569 97.0234 89.3011 96.9687 89.2866C96.9081 89.2753 96.8583 89.3043 96.8437 89.3579C96.5358 90.5052 96.4763 91.731 96.6747 92.9019C96.7287 93.218 96.8248 93.558 97.0497 93.8042C96.5008 93.9912 95.9047 94.2104 95.3056 94.5122C94.7553 94.7889 94.2344 95.0988 93.7304 95.4233C93.7283 95.4254 93.7249 95.4242 93.7226 95.4253C93.7211 95.4268 93.7202 95.4296 93.7187 95.4312C93.2398 95.7398 92.7781 96.0655 92.3456 96.4136C92.2993 96.3201 92.2791 96.2059 92.2685 96.0874C92.2655 96.0501 92.2625 96.0132 92.2587 95.979C92.2314 95.7442 92.212 95.5095 92.2021 95.2808C92.1785 94.7425 92.1662 94.2194 92.2802 93.7427C92.2937 93.688 92.2597 93.6325 92.205 93.6196C92.1505 93.6062 92.0957 93.6404 92.082 93.6948C91.9619 94.1966 91.9746 94.7359 91.999 95.2886C92.0088 95.5226 92.0283 95.7621 92.0556 96.0015C92.0594 96.0342 92.0623 96.069 92.0654 96.104C92.0775 96.2499 92.1076 96.405 92.1874 96.5396L92.1865 96.5405C90.8662 97.6319 89.7807 98.8958 89.0019 100.268C88.9604 100.119 88.9751 99.8968 89.0634 99.5728L89.0624 99.5737C89.9891 96.1733 90.7926 90.7622 92.3076 91.0103C93.8228 91.2596 92.6974 93.5627 93.8437 93.5522C94.9902 93.5424 95.2523 91.9004 95.4804 88.9321ZM89.0019 100.268C89.0262 100.356 89.0698 100.417 89.1308 100.46C89.0377 100.628 88.9478 100.796 88.8642 100.966C88.8452 101.006 88.8035 101.028 88.7617 101.023C88.7503 101.021 88.738 101.018 88.7275 101.013C88.6767 100.989 88.6566 100.927 88.6816 100.876C88.782 100.672 88.8882 100.468 89.0019 100.268Z" fill="#808080" fill-opacity="0.2"/>
<path d="M88.6304 99.7654C91.6412 98.1794 98.4528 97.6731 98.5737 95.4279C98.6946 93.1827 96.8197 92.0209 94.3008 92.6033C94.3008 92.6033 95.5271 90.0267 98.0346 89.683C100.542 89.3394 102.851 88.7585 102.899 87.8051C102.947 86.8516 100.712 85.9666 99.4032 86.4084C99.4032 86.4084 99.4716 83.1672 101.937 82.9003C104.935 82.5757 105.938 81.1927 105.16 80.4985C104.383 79.8036 100.348 78.1081 98.8177 81.1645C97.2865 84.221 96.9489 84.4863 96.9489 84.4863C96.9489 84.4863 95.7742 84.5281 96.0358 82.2822C96.2973 80.0363 94.4642 79.0015 93.0014 81.7059C91.5378 84.4103 93.7108 85.9621 93.5024 87.8157C93.2941 89.6693 91.2215 93.4024 90.6771 90.3779C90.1328 87.3534 86.662 86.5969 86.9091 90.9428C87.1562 95.288 88.6296 99.7677 88.6296 99.7677L88.6304 99.7654Z" fill="#D3D3D3"/>
<path d="M99.2405 87.8673C99.2435 87.786 99.1812 87.7191 99.0998 87.7153L97.6339 87.6605C97.2538 87.6461 96.8219 87.6301 96.4296 87.7966C96.2449 87.8757 96.0768 87.9905 95.9141 88.1022C95.7294 88.2292 95.5515 88.3463 95.3675 88.4018C97.8689 84.9705 100.436 82.0495 101.892 81.3036C101.964 81.2663 101.992 81.1781 101.955 81.1067C101.918 81.0344 101.83 81.0063 101.758 81.0428C100.391 81.7438 98.0567 84.3334 95.7073 87.4689L95.7058 87.4165C95.6754 86.4927 95.442 85.5674 95.0291 84.7402L94.9805 84.6436C94.8801 84.4459 94.7858 84.2604 94.7562 84.0612C94.7174 83.7966 94.7995 83.5108 94.8718 83.2576C94.8938 83.18 94.8482 83.0987 94.7714 83.0766C94.6938 83.0546 94.6125 83.0994 94.5904 83.177C94.5098 83.4575 94.4186 83.7769 94.4673 84.1038C94.5038 84.3501 94.614 84.5668 94.7204 84.7767L94.7683 84.8717C95.1622 85.6617 95.3857 86.5451 95.4146 87.4271L95.4177 87.5624C95.4192 87.6521 95.4215 87.7419 95.4268 87.8316C95.4268 87.8361 95.4298 87.8384 95.4306 87.843C93.3291 90.6835 91.2489 93.9155 89.8636 96.5888C89.9077 96.0596 89.6865 95.5799 89.4705 95.1153C89.3443 94.8446 89.2143 94.5641 89.1436 94.2835C89.0432 93.8867 89.0539 93.4632 89.0638 93.0534L89.1193 90.8363C89.1208 90.755 89.0569 90.6873 88.9763 90.6865C88.8958 90.6842 88.8288 90.7481 88.8266 90.8295L88.7711 93.0465C88.7604 93.4761 88.749 93.9209 88.8593 94.3558C88.9368 94.6637 89.0729 94.9564 89.2044 95.24C89.4158 95.6939 89.615 96.1227 89.5694 96.6108C89.5572 96.731 89.5443 96.8921 89.6431 97.0214C89.1368 98.0326 88.7376 98.9533 88.492 99.7235C88.47 99.7935 88.5027 99.868 88.5673 99.8992C88.5734 99.9022 88.5802 99.9045 88.5871 99.9075C88.6639 99.9318 88.7467 99.8893 88.7711 99.8125C89.0843 98.8317 89.6431 97.6076 90.3631 96.2596C90.4065 96.2535 90.4468 96.2307 90.4703 96.1896C90.7106 95.7699 91.2223 95.4742 91.8746 95.3784C92.2282 95.3267 92.5977 95.329 92.955 95.3312C93.1938 95.3328 93.4325 95.3343 93.6697 95.3206C94.4452 95.2772 95.0367 95.059 95.4283 94.6713C95.4853 94.6143 95.4861 94.5215 95.4283 94.4645C95.3705 94.4075 95.2785 94.4067 95.2215 94.4637C94.8832 94.7998 94.3555 94.9899 93.653 95.0286C93.4211 95.0416 93.1884 95.04 92.9558 95.0385C92.5878 95.0362 92.2069 95.034 91.8313 95.0895C91.4382 95.1472 91.09 95.2735 90.8049 95.4529C92.0054 93.3096 93.5481 90.9275 95.1341 88.7272C95.4952 88.7401 95.7932 88.5432 96.0799 88.3471C96.238 88.2383 96.387 88.1365 96.5444 88.0688C96.8759 87.9274 97.2728 87.9426 97.6225 87.9555L99.0884 88.0103C99.169 88.0133 99.2367 87.9502 99.2397 87.8696L99.2405 87.8673Z" fill="white"/>
<path d="M80.112 76.4977C80.112 75.3276 78.0378 73.2535 76.8677 73.2535C78.0378 73.2535 80.112 71.1794 80.112 70.0093C80.112 71.1794 82.1861 73.2535 83.3562 73.2535C82.1861 73.2535 80.112 75.3276 80.112 76.4977Z" fill="white"/>
<path d="M83.0217 71.459C83.0217 70.7892 81.8341 69.6016 81.1642 69.6016C81.8341 69.6016 83.0217 68.414 83.0217 67.7441C83.0217 68.414 84.2093 69.6016 84.8791 69.6016C84.2093 69.6016 83.0217 70.7892 83.0217 71.459Z" fill="white"/>
<path d="M38.9223 107.722H70.7883C73.9101 107.722 76.0374 104.89 75.5402 101.396L68.077 46.2702C67.5798 42.7766 64.6458 39.9444 61.524 39.9444L31.2258 39.3955C28.1039 39.3955 24.4096 42.7766 24.9069 46.2702L32.37 101.396C32.8673 104.89 35.8013 107.722 38.9231 107.722H38.9223Z" fill="#B7B7B7"/>
<path d="M41.0998 107.173H72.9658C76.0876 107.173 78.2149 104.341 77.7177 100.847L70.2545 45.7213C69.7573 42.2276 66.8233 39.3955 63.7015 39.3955H31.8348C28.7129 39.3955 26.5856 42.2276 27.0828 45.7213L34.546 100.847C35.0433 104.341 37.9773 107.173 41.0991 107.173H41.0998Z" fill="white"/>
<path d="M40.6179 101.229H71.9888C73.8265 101.229 75.0795 99.5614 74.786 97.5048L67.5342 46.7377C67.2415 44.681 65.5141 43.0137 63.6757 43.0137H32.3054C30.4678 43.0137 29.2148 44.681 29.5083 46.7377L36.7601 97.5048C37.0528 99.5614 38.7802 101.229 40.6186 101.229H40.6179Z" fill="#00A08D"/>
<path d="M57.762 105.897C59.1775 105.897 60.325 105.181 60.325 104.297C60.325 103.414 59.1775 102.698 57.762 102.698C56.3465 102.698 55.199 103.414 55.199 104.297C55.199 105.181 56.3465 105.897 57.762 105.897Z" fill="#8190C7"/>
<mask id="mask0_9759_1897" style="mask-type:luminance" maskUnits="userSpaceOnUse" x="27" y="39" width="51" height="69">
<path d="M41.0998 107.173H72.9658C76.0876 107.173 78.2149 104.341 77.7177 100.847L70.2545 45.7213C69.7573 42.2276 66.8233 39.3955 63.7015 39.3955H31.8348C28.7129 39.3955 26.5856 42.2276 27.0828 45.7213L34.546 100.847C35.0433 104.341 37.9773 107.173 41.0991 107.173H41.0998Z" fill="white"/>
</mask>
<g mask="url(#mask0_9759_1897)">
<g style="mix-blend-mode:multiply">
<path d="M102.705 32.6601C104.875 31.4071 106.019 28.797 105.313 26.2682C105.291 26.1899 105.267 26.1123 105.242 26.0348C105.238 26.0203 105.233 26.0059 105.229 25.9922C105.207 25.9276 105.184 25.863 105.159 25.7998C105.149 25.7717 105.138 25.7428 105.127 25.7155C105.106 25.663 105.085 25.6121 105.063 25.5603C105.046 25.5223 105.029 25.4843 105.013 25.4463C105.002 25.4227 104.991 25.3999 104.98 25.3771C104.951 25.3163 104.922 25.2562 104.892 25.1969C104.89 25.1916 104.886 25.187 104.884 25.1817C103.896 23.281 101.898 22.1063 99.7726 22.1496L97.2484 13.1027C96.9587 12.0649 95.8829 11.459 94.8459 11.7486C93.808 12.0383 93.2021 13.1141 93.4918 14.1512L93.5168 14.2417L81.3147 26.4058L77.6591 27.4261C74.2978 28.3636 72.3332 31.8481 73.2691 35.2094V35.2109V35.2132C73.9344 37.596 75.8793 39.277 78.1526 39.7203L78.8011 42.043L80.7551 49.0462L70.3397 58.6595L61.384 52.2737C60.3645 51.3758 59.0613 50.8671 57.7026 50.8367L52.0566 50.7098L52.2155 49.5153C52.3775 49.472 52.5394 49.421 52.7013 49.3587C55.5989 48.2433 56.4976 43.1538 56.7758 40.1316C58.244 38.7425 59.0256 36.3514 58.3968 34.2567C58.3968 34.2567 56.2474 35.8032 54.8789 34.6034C53.5111 33.4037 49.1895 31.5333 45.8799 32.6456C42.5703 33.758 42.3445 40.7505 43.6666 43.185L43.6742 43.1706C44.1623 44.5878 45.0876 46.0993 46.2699 47.3081L46.4007 51.0329L41.6442 51.337C39.5047 51.4739 37.6184 52.7861 36.7456 54.7439L28.0515 75.3467C27.6151 76.3807 27.7375 77.5668 28.3754 78.4898L38.4456 93.055L38.6364 92.9858L38.4509 95.3116C38.4509 95.3116 38.4525 95.3101 38.4547 95.3101L38.3855 96.1882C38.3217 97.0025 38.625 97.8023 39.2135 98.3688L41.1569 100.24C41.4268 100.5 41.8229 100.449 42.0419 100.211L41.496 101.23H67.2156L61.048 88.6916L61.489 88.7083C60.8229 85.163 60.3166 70.4952 60.0413 60.5017L68.6655 64.8149C69.4539 65.2095 70.3458 65.3456 71.2163 65.205C72.4632 65.0035 73.5839 64.3261 74.3419 63.3149L82.0864 52.9793C82.7403 53.7799 83.829 54.1638 84.8889 53.8681C86.3175 53.4697 87.1523 51.9886 86.7539 50.56L86.2696 48.8242L86.4011 48.7147C87.3553 47.9065 87.4374 45.8286 86.5205 44.9778L85.8149 44.1833C85.4241 43.8206 85.12 43.645 84.825 43.645L84.0624 40.9109L83.5059 38.9174L84.7125 38.5806L96.3034 41.4127L101.45 42.6718L101.474 42.76C101.764 43.7978 102.84 44.4038 103.877 44.1141C104.915 43.8244 105.521 42.7486 105.231 41.7115L102.705 32.6593V32.6601ZM34.7893 75.127L38.6843 67.5756C39.7077 77.9196 41.5195 87.9579 41.5195 87.9579L41.9506 87.9739L41.9795 92.4559C41.9795 92.4559 41.9765 92.4528 41.975 92.4505C41.9628 92.4369 41.9514 92.4232 41.9392 92.4095C41.9347 92.4049 41.9301 92.4011 41.9255 92.3966C41.7469 92.2156 41.5195 92.0879 41.2694 92.0316L41.7028 91.875L34.7901 75.1255L34.7893 75.127ZM42.0282 99.3632L41.3142 98.6303C40.979 98.2859 40.8664 97.781 41.0253 97.3264L41.4078 96.2315L41.4792 97.0489C41.496 97.2382 41.6503 97.3849 41.8404 97.3925C41.9149 97.3956 41.9841 97.3758 42.0441 97.3408V99.3792C42.0388 99.3739 42.0343 99.3678 42.0289 99.3632H42.0282ZM51.8916 101.23L52.49 94.6843L57.235 101.23H51.8916Z" fill="#D1D3D4"/>
</g>
</g>
<mask id="mask1_9759_1897" style="mask-type:luminance" maskUnits="userSpaceOnUse" x="19" y="7" width="105" height="95">
<path d="M37.5629 101.229H70.7693C72.7149 101.229 117.863 48.2022 117.553 46.0247L123.332 11.8915C123.022 9.71477 99.2328 7.5 97.2872 7.5L54.0068 23.2885C40.0278 23.2885 18.8031 44.5611 19.1133 46.7386L33.4786 97.2868C33.7888 99.4643 35.6173 101.229 37.5629 101.229Z" fill="white"/>
</mask>
<g mask="url(#mask1_9759_1897)">
<path d="M76.7529 114.031L72.3903 145.916L68.4823 145.769L69.866 113.765L55.0903 93.3836L53.0123 116.12L50.6516 148.641L48.2331 148.551L44.6376 115.806L44.6467 85.8079L51.4773 82.5249L53.2534 85.116L63.3441 86.8799L75.598 107.458C76.2336 108.526 76.591 109.737 76.6389 110.983L76.7529 114.031Z" fill="#57547F"/>
<path d="M63.0453 87.245C58.0881 87.2655 53.816 87.6403 47.7161 88.5823C45.0763 88.9899 44.5866 92.2128 44.5866 92.2128L44.541 85.1055L58.2767 85.3092L63.0453 87.245Z" fill="#404459"/>
<path d="M83.8337 47.2588L83.2444 43.8983C83.1836 43.5523 83.3501 43.2056 83.658 43.0361C84.1233 42.7799 84.7057 43.0262 84.8464 43.5379C84.9422 43.8853 85.3786 43.9979 85.6303 43.7394L86.3556 42.9943C87.1455 42.183 87.585 42.1123 88.4145 42.8817L89.1201 43.6763C90.0362 44.527 89.9541 46.605 89.0007 47.4132L86.0651 49.8575L83.8337 47.2581V47.2588Z" fill="#FEAC84"/>
<path d="M44.833 91.591C44.8854 91.7407 44.9105 91.8981 44.9067 92.0563L44.8299 95.724C44.8254 95.9346 44.6497 96.1003 44.4391 96.092C44.2498 96.0851 44.0947 95.9376 44.078 95.7483L44.0065 94.931L43.6241 96.0258C43.4652 96.4797 43.5777 96.9846 43.913 97.3298L44.6269 98.0627C44.7448 98.1836 44.8079 98.3478 44.8018 98.5166C44.782 99.0496 44.1403 99.3088 43.7564 98.9386L41.813 97.0675C41.2246 96.501 40.9212 95.7012 40.9851 94.8869L41.2938 90.9652L43.4203 90.7098C44.0392 90.6353 44.6262 91.0017 44.8322 91.5902L44.833 91.591Z" fill="#FEAC84"/>
<path d="M44.8771 94.3606C44.8771 94.3606 44.871 94.3363 44.8603 94.2922C44.7539 93.89 43.8385 90.9248 42.3536 91.7003C41.2215 92.3868 41.1318 93.9508 41.0565 94.0086C41.0543 94.0086 41.0512 94.0108 41.0512 94.0108L41.2945 90.9666L43.4203 90.7111C44.04 90.6374 44.6262 91.0015 44.833 91.59C44.8839 91.7307 44.9075 91.8797 44.9067 92.028C44.8908 92.3823 44.8854 92.8559 44.8816 93.2832C44.8793 93.3441 44.8793 93.4049 44.8801 93.4627C44.8786 93.4938 44.8801 93.5258 44.8794 93.5547C44.8771 94.0116 44.8786 94.3613 44.8786 94.3613L44.8771 94.3606Z" fill="#E87979"/>
<path d="M86.3518 49.4562L76.9415 62.0149C76.1842 63.0261 75.0635 63.7035 73.8159 63.905C72.9461 64.0457 72.0535 63.9088 71.265 63.515L62.6409 59.2018C62.9169 69.1945 63.4225 83.863 64.0885 87.4084L44.1176 86.6587C44.1176 86.6587 42.3058 76.6204 41.2824 66.2764L37.3873 73.8278L44.3 90.5773L41.0444 91.755L30.9742 77.1898C30.3355 76.2668 30.2131 75.0808 30.6495 74.0467L39.3436 53.444C40.2164 51.4862 42.1028 50.1739 44.2423 50.037L54.2106 49.3991L60.3007 49.536C61.6586 49.5664 62.9625 50.0751 63.9821 50.973L72.9377 57.3588L83.9196 47.2231L86.3503 49.4569L86.3518 49.4562Z" fill="#4E3654"/>
<path d="M48.8124 44.3501L49.0154 50.1307C49.039 50.7945 49.3872 51.405 49.9476 51.7623L50.1483 51.8908C51.4773 52.7386 53.2427 52.3265 54.0593 50.9784L54.2745 50.6234C54.4607 50.3155 54.5816 49.9726 54.6295 49.6152L55.2492 44.9652L48.8124 44.3509V44.3501Z" fill="#EA9378"/>
<path d="M54.8675 47.8338L54.8637 47.868C53.0359 49.1286 49.2329 47.9144 49.2503 51.005C49.1074 50.7397 49.0261 50.4401 49.0162 50.1314L48.8132 44.3516L52.9622 44.7477L54.8675 47.8338Z" fill="#E87979"/>
<path d="M55.2492 44.9642L54.8675 47.8336L52.9622 44.7476L55.2492 44.9642Z" fill="#EA9378"/>
<path d="M59.5016 36.557C59.5016 36.557 59.4833 46.4478 55.3016 48.0574C51.12 49.6669 46.8318 44.6778 46.0282 40.9972C45.2245 37.3165 49.2329 34.0518 49.2329 34.0518L59.5016 36.557Z" fill="#FEAC84"/>
<path d="M58.9975 39.0818C55.6544 43.5372 50.9329 37.92 49.2085 36.7096C47.4841 35.4992 50.0677 34.269 50.0677 34.269L54.6782 36.2641L58.9975 39.081V39.0818Z" fill="#E87979"/>
<path d="M49.7871 36.5455C49.7871 36.5455 51.5776 38.2615 55.2317 39.7236C58.8865 41.1857 62.0965 36.6185 60.9971 32.9561C60.9971 32.9561 58.8477 34.5026 57.4791 33.3028C56.1114 32.103 51.7898 30.2327 48.4802 31.345C45.1706 32.4573 44.9447 39.4499 46.2669 41.8844L47.4332 39.6369C47.4332 39.6369 46.8425 38.9085 46.9839 37.5005C47.1253 36.0924 48.601 36.766 48.5684 37.648L49.7871 36.5455Z" fill="#925454"/>
<path d="M100.585 21.7012L99.6168 21.9718L96.1164 12.9409L83.915 25.1051L87.312 37.2806L104.049 41.3703L102.368 31.8322L103.337 31.5616L101.478 26.7709L100.585 21.7012Z" fill="#D9E0E9"/>
<path d="M107.913 24.9682C108.701 27.7905 107.186 30.7146 104.511 31.7402L101.496 20.9363C104.315 20.4284 107.126 22.1467 107.913 24.9682Z" fill="#00A08D"/>
<path opacity="0.49" d="M107.913 24.968C108.701 27.7903 107.186 30.7144 104.511 31.7401L103.884 29.4941C106.193 28.6069 107.638 26.3047 107.484 23.8823C107.66 24.2207 107.806 24.5841 107.913 24.9688V24.968Z" fill="#226B8E"/>
<path d="M79.2338 32.9728L84.1811 50.7032C84.5795 52.1318 86.0605 52.9666 87.4892 52.5682C88.9178 52.1698 89.7526 50.6887 89.3542 49.2601L84.4069 31.5298L79.2338 32.9728Z" fill="#D9E0E9"/>
<path opacity="0.49" d="M86.6612 39.6108C83.918 41.3884 81.4006 40.7413 81.4006 40.7413L80.1773 36.3582L85.4668 35.3325L86.6604 39.6115L86.6612 39.6108Z" fill="#2D87C1"/>
<path d="M80.2587 26.1246C76.8966 27.0628 74.9312 30.5488 75.8694 33.9109C76.8076 37.273 80.2936 39.2384 83.6557 38.3001L87.3113 37.2798L83.9142 25.1035L80.2587 26.1238V26.1246Z" fill="#00A08D"/>
<path opacity="0.49" d="M103.003 31.6565L102.368 31.8336L104.049 41.3717L87.3105 37.2767L83.6534 38.297C80.2891 39.236 76.8076 37.2736 75.8687 33.9085C75.8291 33.7663 75.798 33.6226 75.7751 33.4759C78.938 37.8758 86.0203 32.651 86.0203 32.651C86.0203 32.651 92.6988 34.9448 102.381 30.5518C102.381 30.5518 102.61 30.9555 103.003 31.6557V31.6565Z" fill="#226B8E"/>
<path d="M97.4454 10.4479C96.4076 10.7375 95.8016 11.8134 96.0913 12.8504L104.074 41.46C104.363 42.4978 105.439 43.1038 106.476 42.8141C107.513 42.5244 108.12 41.4486 107.83 40.4115L99.848 11.802C99.5583 10.7641 98.4825 10.1582 97.4454 10.4479Z" fill="#596584"/>
<path d="M106.108 20.6459C105.836 20.4908 105.74 20.1449 105.895 19.8719L110.45 11.856C110.606 11.5838 110.951 11.488 111.224 11.6431C111.497 11.7982 111.592 12.1442 111.437 12.4171L106.882 20.433C106.727 20.7052 106.381 20.801 106.108 20.6459Z" fill="white"/>
<path d="M118.093 21.9458L109.204 24.3932C108.902 24.4761 108.59 24.2989 108.506 23.9963C108.423 23.6937 108.601 23.3813 108.903 23.2984L117.792 20.851C118.094 20.7681 118.406 20.9452 118.49 21.2478C118.573 21.5504 118.396 21.8629 118.093 21.9458Z" fill="white"/>
<path d="M116.407 33.4911L108.392 28.9362C108.119 28.7811 108.024 28.4351 108.179 28.1622C108.334 27.89 108.68 27.7942 108.953 27.9493L116.969 32.5043C117.241 32.6594 117.337 33.0053 117.181 33.2783C117.026 33.5505 116.68 33.6463 116.407 33.4911Z" fill="white"/>
<g style="mix-blend-mode:multiply">
<path d="M87.4732 42.9685C87.4732 42.9685 85.4683 43.9592 86.2324 46.3184C86.9965 48.6777 89.0006 48.017 89.0006 48.017L87.4732 42.9678V42.9685Z" fill="#D1D3D4"/>
</g>
<path d="M87.4732 42.3655C87.4732 42.3655 85.4683 43.3562 86.2324 45.7154C86.9965 48.0746 89.0006 47.4139 89.0006 47.4139L87.4732 42.3647V42.3655Z" fill="#FEAC84"/>
</g>
<g style="mix-blend-mode:multiply">
<path d="M66.8478 107.173H69.965C73.0868 107.173 75.2142 104.341 74.7169 100.848L71.8886 79.9575C69.3499 81.4089 67.6393 84.143 67.6393 87.2762C67.6393 90.1661 69.0945 92.7155 71.3115 94.233C68.6261 94.528 66.8478 95.0427 66.8478 95.6289V98.5409C66.8478 98.5873 66.8592 98.6329 66.8812 98.6778C66.8592 98.7234 66.8478 98.769 66.8478 98.8154V101.727C66.8478 101.769 66.8569 101.811 66.8751 101.852C66.8569 101.893 66.8478 101.935 66.8478 101.977V104.889C66.8478 104.935 66.8592 104.981 66.8812 105.026C66.8592 105.071 66.8478 105.117 66.8478 105.163V107.173Z" fill="#D1D3D4"/>
</g>
<path d="M79.8095 109.733C85.1725 109.733 89.5201 108.991 89.5201 108.075C89.5201 107.159 85.1725 106.417 79.8095 106.417C74.4465 106.417 70.0989 107.159 70.0989 108.075C70.0989 108.991 74.4465 109.733 79.8095 109.733Z" fill="#00A08D"/>
<path d="M89.5209 105.163H70.0989V108.075H89.5209V105.163Z" fill="#00A08D"/>
<path d="M79.8095 106.821C85.1725 106.821 89.5201 106.079 89.5201 105.163C89.5201 104.247 85.1725 103.505 79.8095 103.505C74.4465 103.505 70.0989 104.247 70.0989 105.163C70.0989 106.079 74.4465 106.821 79.8095 106.821Z" fill="#00A08D"/>
<path d="M79.8095 106.821C85.1725 106.821 89.5201 106.079 89.5201 105.163C89.5201 104.247 85.1725 103.505 79.8095 103.505C74.4465 103.505 70.0989 104.247 70.0989 105.163C70.0989 106.079 74.4465 106.821 79.8095 106.821Z" fill="black" fill-opacity="0.2"/>
<path d="M87.1867 105.308C87.1867 106.004 83.8832 106.568 79.8095 106.568C75.7358 106.568 72.4323 106.004 72.4323 105.308C72.4323 105.284 72.4353 105.26 72.4452 105.235C72.6664 105.898 75.878 106.422 79.8095 106.422C83.741 106.422 86.9526 105.898 87.1738 105.235C87.1829 105.26 87.1867 105.284 87.1867 105.308Z" fill="#FFF0E1"/>
<path d="M87.1738 105.235C86.9526 105.897 83.7411 106.422 79.8095 106.422C75.878 106.422 72.6664 105.897 72.4452 105.235C72.6664 104.574 75.878 104.048 79.8095 104.048C83.7411 104.048 86.9526 104.574 87.1738 105.235Z" fill="#C98A1B"/>
<path d="M87.1867 105.163C87.1867 105.194 87.1807 105.224 87.1647 105.254C86.8963 104.6 83.7068 104.084 79.8095 104.084C75.9122 104.084 72.7227 104.6 72.4543 105.254C72.4383 105.224 72.4323 105.194 72.4323 105.163C72.4323 104.467 75.7358 103.903 79.8095 103.903C83.8832 103.903 87.1867 104.467 87.1867 105.163Z" fill="#A36F40"/>
<path d="M79.5069 105.787V105.633C78.9914 105.632 78.4577 105.604 78.1467 105.566L78.3596 105.464C78.6797 105.501 79.142 105.53 79.64 105.53C80.271 105.53 80.6983 105.467 80.6983 105.381C80.6983 105.294 80.3516 105.245 79.6932 105.2C78.7861 105.139 78.2266 105.069 78.2266 104.937C78.2266 104.806 78.7512 104.715 79.5693 104.693V104.539H80.1205V104.687C80.6542 104.69 81.0184 104.714 81.2769 104.74L81.0541 104.84C80.8679 104.822 80.5029 104.788 79.9342 104.788C79.2492 104.788 78.9914 104.858 78.9914 104.919C78.9914 104.998 79.3206 105.038 80.0939 105.093C81.01 105.156 81.4715 105.235 81.4715 105.37C81.4715 105.49 80.9827 105.603 80.0665 105.629V105.787H79.5062H79.5069Z" fill="#FCD183"/>
<path d="M79.8095 106.547C85.1725 106.547 89.5201 105.805 89.5201 104.889C89.5201 103.973 85.1725 103.23 79.8095 103.23C74.4465 103.23 70.0989 103.973 70.0989 104.889C70.0989 105.805 74.4465 106.547 79.8095 106.547Z" fill="#00A08D"/>
<path d="M89.5209 101.977H70.0989V104.889H89.5209V101.977Z" fill="#00A08D"/>
<path d="M79.8095 103.635C85.1725 103.635 89.5201 102.892 89.5201 101.977C89.5201 101.061 85.1725 100.318 79.8095 100.318C74.4465 100.318 70.0989 101.061 70.0989 101.977C70.0989 102.892 74.4465 103.635 79.8095 103.635Z" fill="#00A08D"/>
<path d="M79.8095 103.635C85.1725 103.635 89.5201 102.892 89.5201 101.977C89.5201 101.061 85.1725 100.318 79.8095 100.318C74.4465 100.318 70.0989 101.061 70.0989 101.977C70.0989 102.892 74.4465 103.635 79.8095 103.635Z" fill="black" fill-opacity="0.2"/>
<path d="M87.1867 102.122C87.1867 102.817 83.8832 103.382 79.8095 103.382C75.7358 103.382 72.4323 102.817 72.4323 102.122C72.4323 102.097 72.4353 102.073 72.4452 102.049C72.6664 102.711 75.878 103.236 79.8095 103.236C83.741 103.236 86.9526 102.711 87.1738 102.049C87.1829 102.073 87.1867 102.097 87.1867 102.122Z" fill="#FFF0E1"/>
<path d="M87.1738 102.049C86.9526 102.711 83.7411 103.235 79.8095 103.235C75.878 103.235 72.6664 102.711 72.4452 102.049C72.6664 101.387 75.878 100.862 79.8095 100.862C83.7411 100.862 86.9526 101.387 87.1738 102.049Z" fill="#C98A1B"/>
<path d="M87.1867 101.977C87.1867 102.007 87.1807 102.037 87.1647 102.067C86.8963 101.413 83.7068 100.897 79.8095 100.897C75.9122 100.897 72.7227 101.413 72.4543 102.067C72.4383 102.037 72.4323 102.007 72.4323 101.977C72.4323 101.281 75.7358 100.717 79.8095 100.717C83.8832 100.717 87.1867 101.281 87.1867 101.977Z" fill="#A36F40"/>
<path d="M79.5069 102.6V102.447C78.9914 102.445 78.4577 102.418 78.1467 102.38L78.3596 102.278C78.6797 102.314 79.142 102.343 79.64 102.343C80.271 102.343 80.6983 102.281 80.6983 102.194C80.6983 102.108 80.3516 102.059 79.6932 102.013C78.7861 101.952 78.2266 101.882 78.2266 101.751C78.2266 101.619 78.7512 101.529 79.5693 101.506V101.353H80.1205V101.5C80.6542 101.503 81.0184 101.527 81.2769 101.553L81.0541 101.654C80.8679 101.635 80.5029 101.602 79.9342 101.602C79.2492 101.602 78.9914 101.672 78.9914 101.733C78.9914 101.812 79.3206 101.851 80.0939 101.906C81.01 101.97 81.4715 102.049 81.4715 102.184C81.4715 102.304 80.9827 102.416 80.0665 102.442V102.6H79.5062H79.5069Z" fill="#FCD183"/>
<path d="M79.8095 103.386C85.1725 103.386 89.5201 102.643 89.5201 101.728C89.5201 100.812 85.1725 100.069 79.8095 100.069C74.4465 100.069 70.0989 100.812 70.0989 101.728C70.0989 102.643 74.4465 103.386 79.8095 103.386Z" fill="#00A08D"/>
<path d="M89.5209 98.8154H70.0989V101.727H89.5209V98.8154Z" fill="#00A08D"/>
<path d="M79.8095 100.474C85.1725 100.474 89.5201 99.7313 89.5201 98.8155C89.5201 97.8996 85.1725 97.1572 79.8095 97.1572C74.4465 97.1572 70.0989 97.8996 70.0989 98.8155C70.0989 99.7313 74.4465 100.474 79.8095 100.474Z" fill="#00A08D"/>
<path d="M79.8095 100.474C85.1725 100.474 89.5201 99.7313 89.5201 98.8155C89.5201 97.8996 85.1725 97.1572 79.8095 97.1572C74.4465 97.1572 70.0989 97.8996 70.0989 98.8155C70.0989 99.7313 74.4465 100.474 79.8095 100.474Z" fill="black" fill-opacity="0.2"/>
<path d="M87.1867 98.9607C87.1867 99.6564 83.8832 100.221 79.8095 100.221C75.7358 100.221 72.4323 99.6564 72.4323 98.9607C72.4323 98.9364 72.4353 98.912 72.4452 98.8877C72.6664 99.5499 75.878 100.075 79.8095 100.075C83.741 100.075 86.9526 99.5499 87.1738 98.8877C87.1829 98.912 87.1867 98.9364 87.1867 98.9607Z" fill="#FFF0E1"/>
<path d="M87.1738 98.8875C86.9526 99.5497 83.7411 100.074 79.8095 100.074C75.878 100.074 72.6664 99.5497 72.4452 98.8875C72.6664 98.2261 75.878 97.7007 79.8095 97.7007C83.7411 97.7007 86.9526 98.2261 87.1738 98.8875Z" fill="#C98A1B"/>
<path d="M87.1867 98.8155C87.1867 98.8459 87.1807 98.8763 87.1647 98.906C86.8963 98.2521 83.7068 97.7359 79.8095 97.7359C75.9122 97.7359 72.7227 98.2521 72.4543 98.906C72.4383 98.8763 72.4323 98.8459 72.4323 98.8155C72.4323 98.1198 75.7358 97.5557 79.8095 97.5557C83.8832 97.5557 87.1867 98.1198 87.1867 98.8155Z" fill="#A36F40"/>
<path d="M79.5069 99.4391V99.2855C78.9914 99.284 78.4577 99.2566 78.1467 99.2186L78.3596 99.1167C78.6797 99.1532 79.142 99.1821 79.64 99.1821C80.271 99.1821 80.6983 99.1197 80.6983 99.0331C80.6983 98.9464 80.3516 98.8977 79.6932 98.8521C78.7861 98.7913 78.2266 98.7213 78.2266 98.5898C78.2266 98.4583 78.7512 98.3678 79.5693 98.345V98.1914H80.1205V98.3389C80.6542 98.342 81.0184 98.3663 81.2769 98.3921L81.0541 98.4925C80.8679 98.4742 80.5029 98.4408 79.9342 98.4408C79.2492 98.4408 78.9914 98.5107 78.9914 98.5716C78.9914 98.6506 79.3206 98.6902 80.0939 98.7449C81.01 98.8088 81.4715 98.8879 81.4715 99.0224C81.4715 99.1426 80.9827 99.2551 80.0665 99.2809V99.4391H79.5062H79.5069Z" fill="#FCD183"/>
<path d="M79.8095 100.199C85.1725 100.199 89.5201 99.4569 89.5201 98.541C89.5201 97.6252 85.1725 96.8828 79.8095 96.8828C74.4465 96.8828 70.0989 97.6252 70.0989 98.541C70.0989 99.4569 74.4465 100.199 79.8095 100.199Z" fill="#00A08D"/>
<path d="M89.5209 95.6289H70.0989V98.5409H89.5209V95.6289Z" fill="#00A08D"/>
<path d="M79.8095 97.2872C85.1725 97.2872 89.5201 96.5447 89.5201 95.6289C89.5201 94.7131 85.1725 93.9707 79.8095 93.9707C74.4465 93.9707 70.0989 94.7131 70.0989 95.6289C70.0989 96.5447 74.4465 97.2872 79.8095 97.2872Z" fill="#00A08D"/>
<path d="M79.8095 97.2872C85.1725 97.2872 89.5201 96.5447 89.5201 95.6289C89.5201 94.7131 85.1725 93.9707 79.8095 93.9707C74.4465 93.9707 70.0989 94.7131 70.0989 95.6289C70.0989 96.5447 74.4465 97.2872 79.8095 97.2872Z" fill="black" fill-opacity="0.2"/>
<path d="M87.1867 95.7742C87.1867 96.4698 83.8832 97.034 79.8095 97.034C75.7358 97.034 72.4323 96.4698 72.4323 95.7742C72.4323 95.7498 72.4353 95.7255 72.4452 95.7012C72.6664 96.3634 75.878 96.888 79.8095 96.888C83.741 96.888 86.9526 96.3634 87.1738 95.7012C87.1829 95.7255 87.1867 95.7498 87.1867 95.7742Z" fill="#FFF0E1"/>
<path d="M87.1738 95.701C86.9526 96.3632 83.7411 96.8878 79.8095 96.8878C75.878 96.8878 72.6664 96.3632 72.4452 95.701C72.6664 95.0395 75.878 94.5142 79.8095 94.5142C83.7411 94.5142 86.9526 95.0395 87.1738 95.701Z" fill="#D9A656"/>
<path d="M87.1867 95.629C87.1867 95.6594 87.1807 95.6898 87.1647 95.7194C86.8963 95.0656 83.7068 94.5493 79.8095 94.5493C75.9122 94.5493 72.7227 95.0656 72.4543 95.7194C72.4383 95.6898 72.4323 95.6594 72.4323 95.629C72.4323 94.9333 75.7358 94.3691 79.8095 94.3691C83.8832 94.3691 87.1867 94.9333 87.1867 95.629Z" fill="#A36F40"/>
<path d="M79.5069 96.2525V96.099C78.9914 96.0974 78.4577 96.0701 78.1467 96.0321L78.3596 95.9302C78.6797 95.9667 79.142 95.9956 79.64 95.9956C80.271 95.9956 80.6983 95.9332 80.6983 95.8465C80.6983 95.7599 80.3516 95.7112 79.6932 95.6656C78.7861 95.6048 78.2266 95.5348 78.2266 95.4033C78.2266 95.2717 78.7512 95.1813 79.5693 95.1585V95.0049H80.1205V95.1524C80.6542 95.1554 81.0184 95.1798 81.2769 95.2056L81.0541 95.306C80.8679 95.2877 80.5029 95.2543 79.9342 95.2543C79.2492 95.2543 78.9914 95.3242 78.9914 95.385C78.9914 95.4641 79.3206 95.5036 80.0939 95.5584C81.01 95.6222 81.4715 95.7013 81.4715 95.8359C81.4715 95.956 80.9827 96.0685 80.0665 96.0944V96.2525H79.5062H79.5069Z" fill="white"/>
<path d="M79.3153 95.701C83.9682 95.701 87.7402 91.929 87.7402 87.276C87.7402 82.6231 83.9682 78.8511 79.3153 78.8511C74.6623 78.8511 70.8903 82.6231 70.8903 87.276C70.8903 91.929 74.6623 95.701 79.3153 95.701Z" fill="#00A08D"/>
<path d="M72.915 88.014C72.915 91.5487 75.7806 94.4143 79.3153 94.4143C82.85 94.4143 85.7155 91.5487 85.7155 88.014C85.7155 87.8909 85.7125 87.7677 85.7049 87.6445C85.5133 91.0089 82.7268 93.6753 79.3153 93.6753C75.9038 93.6753 73.1173 91.0096 72.9257 87.6445C72.9173 87.7677 72.915 87.8909 72.915 88.014Z" fill="#FCD183"/>
<path d="M72.9257 87.645C73.1173 91.0094 75.9038 93.6758 79.3153 93.6758C82.7268 93.6758 85.5133 91.0101 85.7049 87.645C85.5133 84.2829 82.7268 81.6143 79.3153 81.6143C75.9038 81.6143 73.1173 84.2829 72.9257 87.645Z" fill="#00A08D"/>
<path d="M72.9257 87.645C73.1173 91.0094 75.9038 93.6758 79.3153 93.6758C82.7268 93.6758 85.5133 91.0101 85.7049 87.645C85.5133 84.2829 82.7268 81.6143 79.3153 81.6143C75.9038 81.6143 73.1173 84.2829 72.9257 87.645Z" fill="black" fill-opacity="0.2"/>
<path d="M72.915 87.2743C72.915 87.4301 72.9204 87.5837 72.934 87.7343C73.1667 84.4133 75.9342 81.7917 79.3153 81.7917C82.6964 81.7917 85.4639 84.414 85.6965 87.7343C85.7102 87.5837 85.7155 87.4301 85.7155 87.2743C85.7155 83.7396 82.85 80.874 79.3153 80.874C75.7806 80.874 72.915 83.7396 72.915 87.2743Z" fill="#A36F40"/>
<g style="mix-blend-mode:multiply">
<path d="M40.0187 45.4959L39.2219 38.9246L38.0024 37.8511L30.9049 39.561C30.5849 39.5838 29.8139 39.7344 29.1889 40.1966C28.5738 40.6513 28.275 40.9729 28.1047 41.2436C28.2781 42.6737 28.4514 44.1038 28.6248 45.534C28.7054 46.2015 29.3007 46.7398 29.9538 46.7383L38.9832 46.7079C39.6363 46.7056 40.1001 46.1627 40.0187 45.4959Z" fill="#D1D3D4"/>
</g>
<path d="M41.0756 36.9951L36.4385 42.2238C36.2309 42.4617 35.8477 42.4625 35.5824 42.2268L29.6816 37.0339L34.318 31.8007C34.5255 31.5628 34.9087 31.562 35.1741 31.7977L41.0756 36.9951Z" fill="url(#paint0_linear_9759_1897)"/>
<path d="M40.3054 44.0327L32.1572 44.0601C31.8622 44.0608 31.5938 43.8175 31.5565 43.5164L30.4039 34.0103C30.3674 33.7093 30.5765 33.4637 30.8715 33.4629L39.0197 33.4355C39.3147 33.4348 39.5831 33.6781 39.6203 33.9792L40.773 43.4853C40.8095 43.7864 40.6004 44.0319 40.3054 44.0327Z" fill="white"/>
<path d="M41.0756 36.9949L41.8724 43.5662C41.953 44.233 41.4892 44.7759 40.8368 44.7782L31.8075 44.8086C31.1544 44.8108 30.5598 44.2718 30.4784 43.6042L29.6816 37.0329L35.5824 42.2258C35.847 42.4615 36.2309 42.4607 36.4385 42.2228L41.0756 36.9941V36.9949Z" fill="#F7B97B"/>
<path d="M33.8002 35.9239L32.0964 35.93C32.0158 35.93 31.9428 35.8638 31.9329 35.7817L31.8827 35.3658C31.8728 35.2837 31.9298 35.2168 32.0104 35.216L33.7143 35.21C33.7949 35.21 33.8679 35.2761 33.8785 35.3582L33.9287 35.7741C33.9386 35.8562 33.8816 35.9231 33.801 35.9239H33.8002Z" fill="url(#paint1_linear_9759_1897)"/>
<path d="M37.8055 37.2466L32.2583 37.2657C32.1777 37.2657 32.1047 37.1995 32.0941 37.1174L32.0439 36.7015C32.034 36.6194 32.091 36.5525 32.1716 36.5517L37.7188 36.5327C37.7994 36.5327 37.8724 36.5989 37.883 36.681L37.9332 37.0969C37.9431 37.179 37.8861 37.2459 37.8055 37.2466Z" fill="url(#paint2_linear_9759_1897)"/>
<path d="M37.9674 38.5836L32.4202 38.6026C32.3396 38.6026 32.2666 38.5364 32.256 38.4543L32.2058 38.0384C32.1959 37.9563 32.253 37.8894 32.3336 37.8886L37.8807 37.8696C37.9613 37.8696 38.0343 37.9358 38.045 38.0179L38.0952 38.4338C38.105 38.5159 38.048 38.5828 37.9674 38.5836Z" fill="url(#paint3_linear_9759_1897)"/>
<path d="M21.5098 77.9108C21.5098 76.914 23.2768 75.1463 24.2743 75.1463C23.2775 75.1463 21.5098 73.3794 21.5098 72.3818C21.5098 73.3786 19.7429 75.1463 18.7454 75.1463C19.7421 75.1463 21.5098 76.9133 21.5098 77.9108Z" fill="white"/>
<path d="M19.0312 73.6175C19.0312 73.0465 20.0432 72.0353 20.6134 72.0353C20.0424 72.0353 19.0312 71.0234 19.0312 70.4531C19.0312 71.0241 18.0193 72.0353 17.449 72.0353C18.02 72.0353 19.0312 73.0473 19.0312 73.6175Z" fill="white"/>
</g>
<defs>
<linearGradient id="paint0_linear_9759_1897" x1="31.3301" y1="29.8703" x2="31.7172" y2="41.7036" gradientUnits="userSpaceOnUse">
<stop stop-color="#758EB7"/>
<stop offset="1" stop-color="#A6CAD1"/>
</linearGradient>
<linearGradient id="paint1_linear_9759_1897" x1="26.9905" y1="35.5496" x2="29.0395" y2="35.5406" gradientUnits="userSpaceOnUse">
<stop stop-color="#758EB7"/>
<stop offset="0.27" stop-color="#7891B8"/>
<stop offset="0.52" stop-color="#819DBD"/>
<stop offset="0.76" stop-color="#90AFC5"/>
<stop offset="1" stop-color="#A6CAD1"/>
</linearGradient>
<linearGradient id="paint2_linear_9759_1897" x1="26.8406" y1="36.8855" x2="32.7387" y2="36.8598" gradientUnits="userSpaceOnUse">
<stop stop-color="#758EB7"/>
<stop offset="0.27" stop-color="#7891B8"/>
<stop offset="0.52" stop-color="#819DBD"/>
<stop offset="0.76" stop-color="#90AFC5"/>
<stop offset="1" stop-color="#A6CAD1"/>
</linearGradient>
<linearGradient id="paint3_linear_9759_1897" x1="26.6907" y1="38.2196" x2="32.5896" y2="38.1938" gradientUnits="userSpaceOnUse">
<stop stop-color="#758EB7"/>
<stop offset="0.27" stop-color="#7891B8"/>
<stop offset="0.52" stop-color="#819DBD"/>
<stop offset="0.76" stop-color="#90AFC5"/>
<stop offset="1" stop-color="#A6CAD1"/>
</linearGradient>
<clipPath id="clip0_9759_1897">
<rect width="120" height="120" fill="white"/>
</clipPath>
</defs>
</svg>
