<svg width="169" height="113" viewBox="0 0 169 113" fill="none" xmlns="http://www.w3.org/2000/svg">
<path d="M154.682 40.3792C154.958 40.6856 155.17 41.0446 155.305 41.4348C155.439 41.825 155.494 42.2385 155.466 42.6505C155.405 43.4753 155.155 44.2748 154.736 44.9873C153.97 46.384 152.537 47.5185 151.163 48.3208C150.374 46.7388 150.861 44.7432 151.163 43.7488C151.652 42.1668 153.49 39.6289 154.673 40.3792" fill="#EBEBEB"/>
<path d="M151.602 51.3266C151.69 50.8735 151.895 50.4517 152.198 50.104C152.501 49.7563 152.89 49.4951 153.326 49.3469C153.763 49.2052 154.224 49.1522 154.682 49.191C155.14 49.2298 155.586 49.3596 155.994 49.5729C156.372 49.7627 156.746 50.052 156.839 50.4769C156.869 50.6739 156.846 50.8752 156.773 51.0606C156.7 51.2459 156.58 51.4087 156.424 51.5323C156.108 51.7767 155.734 51.9327 155.338 51.9843C153.986 52.2103 152.659 52.1922 151.602 51.3334" fill="#EBEBEB"/>
<path d="M148.186 55.1667C148.233 55.0679 148.289 54.9734 148.353 54.8842L148.835 54.1338C149.25 53.5101 149.822 52.6083 150.737 51.8738C151.503 51.2372 152.425 50.8174 153.407 50.658C153.705 50.614 154.008 50.6064 154.308 50.6354C154.389 50.6418 154.47 50.6532 154.549 50.6693C154.606 50.6693 154.633 50.6851 154.633 50.6896C154.23 50.6653 153.825 50.6819 153.425 50.7393C152.461 50.9237 151.56 51.3507 150.807 51.9801C149.905 52.692 149.333 53.5756 148.903 54.1881C148.688 54.4977 148.515 54.7486 148.389 54.9181C148.33 55.0074 148.262 55.0907 148.186 55.1667Z" fill="#E0E0E0"/>
<path d="M153.452 42.4429C153.442 42.4899 153.429 42.536 153.411 42.5807L153.281 42.9672C153.164 43.3039 152.988 43.7853 152.767 44.3797C152.316 45.5684 151.688 47.2024 150.946 48.9901C150.205 50.7778 149.497 52.3801 148.968 53.5372C148.704 54.1135 148.486 54.5768 148.332 54.8932C148.258 55.0424 148.197 55.1644 148.152 55.2593C148.133 55.3029 148.109 55.3445 148.082 55.3836C148.093 55.3375 148.109 55.2928 148.13 55.2503C148.172 55.1531 148.224 55.0243 148.292 54.8729L148.894 53.4988C149.403 52.3372 150.099 50.7303 150.84 48.9426C151.582 47.155 152.228 45.5278 152.69 44.3458L153.238 42.9469C153.301 42.7932 153.351 42.6666 153.391 42.5694C153.407 42.5251 153.427 42.4827 153.452 42.4429Z" fill="#E0E0E0"/>
<path d="M149.11 51.3425C149.326 50.3932 149.313 49.4059 149.072 48.4626C148.832 47.5192 148.37 46.6471 147.726 45.9185C147.397 45.5501 146.913 45.2021 146.449 45.3693C145.984 45.5365 145.836 46.1174 145.827 46.6123C145.826 47.6453 146.129 48.6555 146.699 49.5157C147.27 50.3759 148.081 51.0477 149.031 51.4464" fill="#EBEBEB"/>
<path d="M147.368 47.3945C147.448 47.4615 147.519 47.5373 147.582 47.6205C147.664 47.7078 147.739 47.8007 147.807 47.8985C147.891 48.0138 147.994 48.1358 148.087 48.2895C148.194 48.4514 148.292 48.6189 148.382 48.7912C148.489 48.9866 148.584 49.1881 148.668 49.3946C148.86 49.8701 148.998 50.366 149.078 50.8727C149.151 51.3802 149.164 51.8943 149.119 52.405C149.098 52.6275 149.064 52.8486 149.017 53.0671C148.98 53.2583 148.931 53.447 148.871 53.6321C148.826 53.7856 148.772 53.9364 148.711 54.0841C148.669 54.1974 148.619 54.3077 148.562 54.4141C148.523 54.5091 148.474 54.6 148.416 54.6853C148.391 54.6853 148.601 54.2853 148.794 53.6073C148.847 53.4237 148.89 53.2373 148.923 53.049C148.965 52.8331 148.995 52.6151 149.013 52.3959C149.053 51.8932 149.037 51.3877 148.966 50.8885C148.885 50.3916 148.753 49.9045 148.571 49.4353C148.481 49.2206 148.398 49.0172 148.299 48.8342C148.213 48.6622 148.119 48.4947 148.017 48.3324C147.638 47.7313 147.336 47.4104 147.368 47.3945Z" fill="#E0E0E0"/>
<path d="M14.6602 26.2928C14.6602 26.2928 12.5871 26.9708 14.5971 31.423C16.6071 35.8752 18.0424 38.1081 18.0424 38.1081C18.0424 38.1081 18.3872 39.1364 17.5309 39.2539C16.6747 39.3714 14.8269 38.985 14.3943 40.0087C13.9436 41.0687 14.6872 42.1241 16.2308 43.0936C17.7743 44.0632 21.0799 46.3074 21.3774 46.5108C21.6748 46.7142 21.9497 47.1888 21.3774 47.3696C20.805 47.5504 16.5845 47.7854 16.8189 49.7878C17.0532 51.7901 21.7987 53.788 22.308 54.014C22.8173 54.24 22.9367 54.466 22.8803 54.7552C22.824 55.0445 21.3977 54.9812 20.1989 55.1078C19.0001 55.2344 17.6323 55.5734 17.8644 56.7169C18.0965 57.8605 20.8433 60.3713 27.7521 61.3793L30.9833 61.6369L32.8716 58.9769C36.5716 53.0399 36.4364 49.3154 35.7176 48.3979C34.9988 47.4803 33.8473 48.3029 32.9843 49.1437C32.1213 49.9844 31.2357 51.1099 30.9833 50.9675C30.731 50.8251 30.6296 50.5901 30.7873 50.0499C30.945 49.5098 32.5021 44.5943 31.1298 43.1208C29.7575 41.6472 26.8485 44.7208 26.3437 45.0463C25.839 45.3717 25.6565 44.8429 25.6925 44.4881C25.7286 44.1332 26.1567 40.1489 26.4181 38.3409C26.6795 36.5329 26.3527 35.2899 25.2599 34.9509C24.2053 34.6164 23.2995 36.2843 22.6573 36.8628C22.0151 37.4414 21.4562 36.5125 21.4562 36.5125C21.4562 36.5125 20.6879 33.9768 18.5968 29.5562C16.5057 25.1357 14.6151 26.3267 14.6151 26.3267" fill="#EBEBEB"/>
<path d="M31.1185 62.4033C29.5953 59.1489 26.9859 53.3226 24.7191 48.3325C22.4522 43.3425 20.3972 38.827 18.8897 35.5681L17.1028 31.708L16.6183 30.6593L16.4944 30.3836C16.4774 30.3514 16.4623 30.3182 16.4493 30.2842C16.4493 30.2842 16.4674 30.3136 16.4989 30.3746L16.6319 30.6458C16.7468 30.8876 16.9158 31.2379 17.1343 31.6876C17.5692 32.5916 18.1889 33.9047 18.9505 35.5296C20.4738 38.7818 22.5401 43.2927 24.8092 48.2828C27.0783 53.2729 29.6764 59.1127 31.1839 62.3762" fill="#E0E0E0"/>
<path d="M16.9676 40.6528C17.0449 40.6704 17.1204 40.6954 17.1929 40.7274C17.3326 40.7794 17.5354 40.863 17.7833 40.967C18.279 41.1772 18.9573 41.4845 19.7009 41.8371L21.5982 42.7411L22.1751 43.0123C22.2475 43.0416 22.3169 43.078 22.3824 43.1208C22.3045 43.1062 22.2288 43.0819 22.157 43.0484C22.0151 42.9964 21.8145 42.9128 21.5667 42.8066C21.0709 42.5806 20.3972 42.2755 19.6558 41.923L17.7518 41.019L17.1749 40.75C17.1024 40.7255 17.0328 40.6929 16.9676 40.6528Z" fill="#E0E0E0"/>
<path d="M22.6099 42.9399C22.5852 42.9399 23.1553 41.498 23.8831 39.7465C24.6109 37.995 25.2351 36.5825 25.2486 36.5825C25.2621 36.5825 24.7055 38.0244 23.9755 39.7782C23.2454 41.5319 22.637 42.9399 22.6099 42.9399Z" fill="#E0E0E0"/>
<path d="M25.7466 50.7481C25.787 50.6792 25.8346 50.6148 25.8885 50.556C25.9967 50.4181 26.1342 50.2486 26.2964 50.0475C26.6389 49.6181 27.1121 49.0214 27.6101 48.3457C28.1081 47.6699 28.5385 47.0462 28.8472 46.5897L29.2122 46.0495C29.2536 45.9813 29.3011 45.917 29.3542 45.8574C29.3271 45.9329 29.2899 46.0044 29.2438 46.0699C29.1671 46.2055 29.0522 46.3953 28.9058 46.6281C28.6128 47.0959 28.1915 47.731 27.689 48.4067C27.1865 49.0824 26.7088 49.6746 26.3505 50.0927C26.1702 50.3006 26.0237 50.4678 25.9178 50.5808C25.8678 50.6434 25.8103 50.6995 25.7466 50.7481Z" fill="#E0E0E0"/>
<path d="M20.1899 49.8193C20.2652 49.8144 20.341 49.8189 20.4152 49.8329L21.0123 49.9075C21.5148 49.9775 22.2089 50.0792 22.975 50.1967C23.7411 50.3143 24.4329 50.4227 24.9331 50.5131L25.5258 50.6216C25.599 50.6301 25.6709 50.6476 25.7398 50.6736C25.6644 50.6786 25.5887 50.674 25.5145 50.66L24.9196 50.5855C24.4149 50.5154 23.7208 50.4137 22.9547 50.2962C22.1886 50.1787 21.4968 50.0702 20.9966 49.9798L20.4062 49.8713C20.3324 49.8621 20.2598 49.8447 20.1899 49.8193Z" fill="#E0E0E0"/>
<path d="M22.0827 57.0761C22.177 57.0738 22.2713 57.0806 22.3643 57.0965L23.1305 57.1914C23.7749 57.275 24.665 57.3971 25.6474 57.5394C26.6299 57.6818 27.52 57.8152 28.1622 57.9191L28.9238 58.0434C29.0176 58.0563 29.1103 58.0767 29.2009 58.1044C29.1059 58.1068 29.0108 58.1 28.917 58.0841L28.1531 57.9892C27.5087 57.9056 26.6164 57.7813 25.6339 57.6389C24.6515 57.4965 23.7614 57.3632 23.1192 57.2615L22.3598 57.1349C22.2658 57.124 22.173 57.1044 22.0827 57.0761Z" fill="#E0E0E0"/>
<path d="M29.0387 58.0323C29.089 57.9437 29.1471 57.8597 29.2122 57.7814C29.3384 57.6097 29.5051 57.3882 29.7057 57.1192C30.1226 56.5588 30.6949 55.7836 31.3033 54.909C31.9117 54.0343 32.4435 53.2298 32.8221 52.649L33.2727 51.9551C33.3238 51.8677 33.3818 51.7846 33.4462 51.7065C33.4068 51.8002 33.3593 51.8902 33.3043 51.9755C33.2074 52.145 33.0632 52.3891 32.8806 52.6851C32.5156 53.2818 31.9928 54.0954 31.3822 54.97C30.7715 55.8446 30.1924 56.6175 29.7598 57.1667C29.5344 57.4402 29.3654 57.6616 29.2393 57.8108C29.1797 57.891 29.1125 57.9651 29.0387 58.0323Z" fill="#E0E0E0"/>
<path d="M81.6766 53.0309C75.9035 50.1177 73.7313 43.4688 73.0553 37.308C72.9427 36.2797 72.6745 35.2175 73.0305 34.2503C73.3866 33.283 74.4299 32.5033 75.4056 32.8039C76.2145 33.0502 76.6719 33.8864 77.2082 34.5554C77.9148 35.4491 78.8594 36.1238 79.9325 36.5012C80.631 36.7453 81.4648 36.8357 82.0551 36.3882C82.8641 35.7735 82.792 34.5395 82.6387 33.5225C82.3533 31.6256 82.0679 29.7303 81.7825 27.8364C81.6293 26.8194 81.4783 25.782 81.654 24.7696C81.8298 23.7571 82.3976 22.7604 83.3238 22.3491C84.2499 21.9378 85.5253 22.322 85.8723 23.2893C86.0165 23.6915 85.994 24.1345 86.0841 24.5526C86.1742 24.9707 86.4356 25.4091 86.8525 25.4702C87.2694 25.5312 87.6412 25.1831 87.9003 24.8396C88.8016 23.6622 89.3199 22.2338 89.7953 20.8213C90.2708 19.4088 90.7192 17.967 91.5079 16.7081C92.2965 15.4493 93.484 14.3713 94.9239 14.0775C96.3638 13.7837 98.0448 14.4594 98.6171 15.838C99.1895 17.2166 98.5676 18.7964 97.8262 20.0891C96.7317 22.0092 95.3655 23.76 93.7702 25.2871C93.4818 25.5606 93.1708 25.8566 93.0942 26.2521C92.9725 26.9618 93.7094 27.5426 94.4102 27.6691C95.2033 27.8115 96.0123 27.6149 96.8167 27.5923C97.6212 27.5697 98.5293 27.798 98.9371 28.4963C99.5027 29.4771 98.7929 30.693 98.0358 31.5315C96.533 33.2097 94.7531 34.6156 92.7742 35.6876C92.0667 36.0696 91.3163 36.4244 90.7891 37.0436C90.2618 37.6629 90.0319 38.6256 90.4984 39.2878C90.9648 39.95 91.9315 40.0472 92.6931 39.7873C93.4547 39.5274 94.0924 39.0008 94.7977 38.6121C96.1159 37.8821 97.9299 37.7081 98.998 38.7951C99.6987 39.5048 99.9106 40.6031 99.7506 41.5953C99.5906 42.5874 99.1061 43.4869 98.5743 44.3321C96.7176 47.2859 94.1623 49.8194 91.0887 51.4127C88.0152 53.006 85.0633 53.745 81.6788 53.0331" fill="#F5F5F5"/>
<path d="M82.6973 48.9584C83.2318 45.472 83.9646 42.0191 84.8921 38.6166L85.6086 35.934C85.8452 35.0548 86.0796 34.1825 86.3612 33.344C86.9051 31.734 87.5378 30.1556 88.2563 28.6161C88.9323 27.1426 89.6241 25.7685 90.2843 24.4871C90.9445 23.2056 91.5867 22.0259 92.2132 20.975C93.1959 19.3117 94.3088 17.7293 95.5413 16.2426C95.9762 15.716 96.3277 15.3182 96.5688 15.0538L96.8438 14.7532C96.8738 14.7172 96.9069 14.6839 96.9429 14.6538C96.9193 14.6937 96.8913 14.7309 96.8595 14.7645L96.5959 15.0787C96.3706 15.3521 96.0235 15.7567 95.5977 16.29C94.3907 17.7881 93.297 19.3745 92.3258 21.036C91.7062 22.0892 91.0752 23.2712 90.4218 24.5526C89.7683 25.834 89.081 27.2104 88.4118 28.6816C87.6982 30.2204 87.0693 31.7972 86.528 33.405C86.2486 34.2412 86.0165 35.1045 85.7799 35.9859C85.5433 36.8673 85.3089 37.7623 85.0678 38.6663C84.1409 42.062 83.4044 45.5071 82.8618 48.9855" fill="#E0E0E0"/>
<path d="M86.4131 33.3305C86.3438 33.1967 86.2894 33.0558 86.2508 32.9101C86.1585 32.6366 86.0255 32.2321 85.8903 31.7417C85.6019 30.7473 85.2481 29.3642 84.865 27.8364C84.482 26.3086 84.1079 24.9323 83.806 23.9469C83.655 23.4543 83.5288 23.0565 83.4387 22.783C83.383 22.6431 83.3422 22.4977 83.317 22.3491C83.3955 22.477 83.459 22.6135 83.5063 22.7559C83.6189 23.0226 83.7632 23.4158 83.9322 23.9063C84.2679 24.8826 84.6622 26.2589 85.0476 27.7889L86.0187 31.7055C86.1374 32.1756 86.2388 32.5703 86.3229 32.8898C86.3697 33.0327 86.3999 33.1806 86.4131 33.3305Z" fill="#E0E0E0"/>
<path d="M99.1061 28.9937C98.9403 29.0556 98.769 29.1018 98.5946 29.1315C98.2656 29.2106 97.7857 29.3214 97.1998 29.4773C96.0236 29.7801 94.4124 30.2547 92.6593 30.8559C90.9062 31.4571 89.3424 32.0786 88.2248 32.5554C87.6637 32.7814 87.2153 32.9939 86.9043 33.1317C86.7473 33.2136 86.5828 33.2802 86.4131 33.3306C86.5547 33.2278 86.7056 33.1385 86.8638 33.0639C87.1657 32.9057 87.6074 32.6842 88.1617 32.4311C89.2703 31.9204 90.8319 31.283 92.5895 30.6751C94.0889 30.1535 95.6142 29.71 97.1592 29.3462C97.7519 29.2061 98.2363 29.1202 98.5721 29.0592C98.7476 29.0201 98.9264 28.9981 99.1061 28.9937Z" fill="#E0E0E0"/>
<path d="M82.8258 48.6937C82.7819 48.6508 82.744 48.6022 82.7131 48.5491C82.6342 48.4293 82.5396 48.2824 82.4224 48.0971C82.1701 47.7129 81.8208 47.1479 81.3994 46.445C80.5544 45.037 79.448 43.055 78.256 40.8515C77.064 38.648 75.9756 36.6683 75.1599 35.2558L74.191 33.5743L73.9296 33.1223C73.8955 33.0703 73.8682 33.0141 73.8485 32.9551C73.8928 32.9984 73.9308 33.0479 73.9612 33.102L74.2518 33.554C74.5042 33.9382 74.8535 34.5032 75.2749 35.2083C76.1199 36.6163 77.2285 38.5983 78.4295 40.8018C79.6305 43.0053 80.7076 44.9918 81.5233 46.4156L82.4923 48.0993C82.5982 48.2824 82.6838 48.4361 82.7537 48.5513C82.7831 48.5959 82.8073 48.6436 82.8258 48.6937Z" fill="#E0E0E0"/>
<path d="M99.354 40.5781C99.3041 40.6165 99.2496 40.6484 99.1917 40.673L98.714 40.9058L96.9452 41.7782C95.4512 42.5172 93.3984 43.5591 91.1338 44.7162C88.8692 45.8733 86.8029 46.8948 85.2932 47.6022C84.5383 47.9548 83.9254 48.235 83.4905 48.4203L82.997 48.6282C82.9412 48.6577 82.8811 48.6783 82.819 48.6893C82.8693 48.6516 82.9238 48.6197 82.9813 48.5943L83.459 48.3525L85.2301 47.4802C86.724 46.7434 88.7746 45.7015 91.0414 44.5422C93.3083 43.3828 95.3701 42.3635 96.8798 41.6561C97.6347 41.3036 98.2476 41.0233 98.6825 40.838L99.176 40.6301C99.2323 40.6038 99.2923 40.5862 99.354 40.5781Z" fill="#E0E0E0"/>
<path d="M159.987 100.362C159.987 100.396 126.187 100.421 84.5135 100.421C42.8404 100.421 9.02686 100.396 9.02686 100.362C9.02686 100.328 42.8133 100.303 84.5135 100.303C126.214 100.303 159.987 100.33 159.987 100.362Z" fill="#263238"/>
<path d="M73.0441 100.362L43.0928 100.224C41.3636 100.214 39.7091 99.5158 38.4919 98.284C37.2746 97.0521 36.5938 95.3866 36.5986 93.6523L36.9164 18.3423C36.9265 16.6072 37.6222 14.9469 38.851 13.7255C40.0798 12.5041 41.7413 11.8213 43.4713 11.8267L73.4226 11.9646C75.151 11.9753 76.8048 12.6724 78.0219 13.9033C79.239 15.1342 79.9203 16.7986 79.9167 18.5321L79.599 93.8421C79.5901 95.578 78.8949 97.2394 77.6659 98.4618C76.437 99.6841 74.7748 100.368 73.0441 100.362Z" fill="#455A64"/>
<path d="M73.3798 14.5637L67.573 14.5366C67.1907 14.5437 66.8268 14.7026 66.5611 14.9784C66.2954 15.2542 66.1496 15.6244 66.1556 16.0078V17.0655C66.1586 17.2554 66.1242 17.4439 66.0545 17.6204C65.9847 17.7969 65.8809 17.9579 65.7491 18.0941C65.6172 18.2304 65.4599 18.3392 65.286 18.4144C65.1122 18.4895 64.9253 18.5296 64.736 18.5323L53.4153 18.4803C53.0331 18.469 52.671 18.3066 52.4079 18.0283C52.1449 17.7501 52.0023 17.3788 52.0114 16.9955V15.9378C52.0181 15.557 51.8751 15.1889 51.6132 14.9131C51.3513 14.6373 50.9917 14.4761 50.6121 14.4643H48.5706L43.4893 14.4258C42.2777 14.4198 41.1134 14.8966 40.2522 15.7515C39.391 16.6063 38.9036 17.7691 38.897 18.9843L38.5883 92.493C38.5829 93.7082 39.0589 94.8758 39.9116 95.7391C40.7643 96.6023 41.924 97.0907 43.1356 97.0966L73.0283 97.2345C73.6284 97.2372 74.2231 97.1213 74.7786 96.8934C75.334 96.6656 75.8393 96.3302 76.2655 95.9065C76.6918 95.4828 77.0306 94.979 77.2627 94.424C77.4948 93.8689 77.6157 93.2734 77.6183 92.6716L77.927 19.1651C77.9297 18.5635 77.8142 17.9672 77.5871 17.4104C77.36 16.8536 77.0258 16.3471 76.6036 15.9198C76.1813 15.4925 75.6793 15.1529 75.1262 14.9202C74.573 14.6875 73.9796 14.5664 73.3798 14.5637Z" fill="#FAFAFA"/>
<path d="M38.861 27.8096H43.7597L48.1312 32.1962L43.5862 36.7547L38.9128 32.0652L38.861 27.8096Z" fill="#EBEBEB"/>
<path d="M49.1294 30.2707L46.6733 27.8096H52.1985L49.1294 30.2707Z" fill="#EBEBEB"/>
<path d="M51.2769 32.2821L55.5785 27.9678H70.6082C70.6082 27.9678 72.9089 38.2734 63.8482 44.8907L51.2769 32.2821Z" fill="#EBEBEB"/>
<path d="M49.4359 33.6562L44.8346 38.2734L57.5682 51.0447L62.1695 46.2738L49.4359 33.6562Z" fill="#EBEBEB"/>
<path d="M38.8047 40.8903L41.6889 37.889L38.861 35.0527L38.8047 40.8903Z" fill="#EBEBEB"/>
<path d="M43.415 39.6587L38.9849 44.1019V50.2762L48.1312 59.6619L55.8804 52.43L43.415 39.6587Z" fill="#EBEBEB"/>
<path d="M65.572 46.1856C65.572 46.1856 75.063 39.2068 71.994 27.9678H77.8955L77.8234 59.6891L65.572 46.1856Z" fill="#EBEBEB"/>
<path d="M63.7874 48.0161L59.1996 52.8209L73.2694 66.9346L77.5733 62.3603L63.7874 48.0161Z" fill="#EBEBEB"/>
<path d="M57.282 54.1362L50.0691 61.3185L64.4949 75.6853L71.6943 68.7042L57.282 54.1362Z" fill="#EBEBEB"/>
<path d="M53.5009 90.1219L64.5287 78.6592L75.018 89.3829L53.5009 90.1219Z" fill="#EBEBEB"/>
<path d="M66.248 77.1791L77.74 65.7661C77.74 66.2724 77.6409 89.4306 77.6409 89.4306L66.248 77.1791Z" fill="#EBEBEB"/>
<path d="M56.4167 70.7695L62.9311 77.3032L50.0691 90.6146L44.127 83.4662L56.4167 70.7695Z" fill="#EBEBEB"/>
<path d="M38.8159 84.3932C39.4311 84.3321 55.1841 69.5359 55.1841 69.5359L38.8159 52.5249V84.3932Z" fill="#EBEBEB"/>
<path d="M38.5883 87.765L42.3807 84.3931L47.6332 90.6148H38.5883V88.2351" fill="#EBEBEB"/>
<path d="M43.4893 23.3303C43.0885 23.0337 42.7118 22.7057 42.3627 22.3494C42.3627 22.1777 42.3627 22.302 42.3627 22.2636L42.3784 22.25L42.4055 22.2251L42.4618 22.1732L42.57 22.0715L42.775 21.8816L43.1288 21.5652C43.2359 21.4554 43.3572 21.3604 43.4893 21.2827C43.4089 21.4056 43.3119 21.5167 43.2009 21.6127L42.8629 21.9472L42.6624 22.1415L42.5542 22.2455L42.5001 22.2975L42.4708 22.3223L42.4573 22.3359V22.25C42.8288 22.5826 43.1739 22.9438 43.4893 23.3303Z" fill="#263238"/>
<path d="M74.6417 21.6059C74.6421 21.6548 74.628 21.7028 74.6012 21.7436C74.5744 21.7845 74.5361 21.8164 74.4911 21.8353C74.4461 21.8542 74.3965 21.8593 74.3487 21.8499C74.3008 21.8404 74.2569 21.8169 74.2224 21.7823C74.1879 21.7478 74.1645 21.7037 74.1551 21.6557C74.1457 21.6077 74.1507 21.558 74.1696 21.5128C74.1884 21.4677 74.2203 21.4293 74.261 21.4024C74.3017 21.3755 74.3495 21.3614 74.3983 21.3618C74.4629 21.3618 74.5248 21.3875 74.5704 21.4333C74.616 21.4791 74.6417 21.5412 74.6417 21.6059Z" fill="#263238"/>
<path d="M74.5718 22.2771C74.6062 22.3116 74.6296 22.3554 74.6392 22.4032C74.6487 22.451 74.6438 22.5006 74.6253 22.5456C74.6067 22.5907 74.5752 22.6292 74.5348 22.6563C74.4944 22.6834 74.4469 22.6978 74.3983 22.6978C74.3497 22.6978 74.3022 22.6834 74.2618 22.6563C74.2214 22.6292 74.1899 22.5907 74.1713 22.5456C74.1528 22.5006 74.1479 22.451 74.1574 22.4032C74.167 22.3554 74.1904 22.3116 74.2248 22.2771C74.2711 22.2316 74.3334 22.2061 74.3983 22.2061C74.4632 22.2061 74.5255 22.2316 74.5718 22.2771Z" fill="#263238"/>
<path d="M74.6417 23.2938C74.6358 23.3548 74.6075 23.4114 74.5623 23.4526C74.5171 23.4938 74.4583 23.5166 74.3972 23.5166C74.3361 23.5166 74.2772 23.4938 74.232 23.4526C74.1868 23.4114 74.1585 23.3548 74.1527 23.2938C74.1494 23.2597 74.1533 23.2252 74.1641 23.1926C74.1749 23.16 74.1924 23.13 74.2154 23.1046C74.2384 23.0792 74.2665 23.0589 74.2978 23.045C74.3291 23.0311 74.3629 23.0239 74.3972 23.0239C74.4314 23.0239 74.4653 23.0311 74.4966 23.045C74.5279 23.0589 74.556 23.0792 74.579 23.1046C74.602 23.13 74.6195 23.16 74.6303 23.1926C74.6411 23.2252 74.6449 23.2597 74.6417 23.2938Z" fill="#263238"/>
<path d="M64.0826 22.6069H53.5415V23.4883H64.0826V22.6069Z" fill="#263238"/>
<path d="M62.9356 38.4201C62.9356 34.3024 58.6227 31.6944 54.2242 33.7578C53.229 34.2241 52.4148 35.0065 51.9078 35.9839C50.8014 38.1331 51.2904 40.5875 52.2931 42.626L55.7182 51.3293C55.8263 51.6066 56.0154 51.8448 56.2606 52.0127C56.5058 52.1805 56.7958 52.2704 57.0927 52.2704C57.3896 52.2704 57.6796 52.1805 57.9248 52.0127C58.1701 51.8448 58.3591 51.6066 58.4672 51.3293L61.8225 42.5808C62.9852 39.914 62.9356 38.4201 62.9356 38.4201ZM58.812 42.0135C55.8556 43.7379 52.8587 40.5513 54.4788 37.4054C54.6923 36.9905 55.018 36.6444 55.4185 36.4065C58.3771 34.6821 61.374 37.8687 59.7516 41.0146C59.5391 41.4301 59.2132 41.7765 58.812 42.0135Z" fill="#00A08D"/>
<path d="M152.566 69.8608H27.547V88.2595H152.566V69.8608Z" fill="#00A08D"/>
<g opacity="0.5">
<path d="M152.566 69.8608H27.547V88.2595H152.566V69.8608Z" fill="black"/>
</g>
<path d="M45.1575 100.198C51.8005 99.7495 56.8232 93.985 56.3762 87.3223C55.9291 80.6597 50.1816 75.6221 43.5386 76.0705C36.8957 76.5188 31.8729 82.2834 32.3199 88.946C32.767 95.6086 38.5146 100.646 45.1575 100.198Z" fill="#263238"/>
<path d="M32.2948 87.9297C32.2948 87.941 32.2948 87.9523 32.2948 87.9613C32.2718 89.5491 32.561 91.1259 33.1456 92.6017C33.7303 94.0774 34.599 95.4232 35.7022 96.5623C36.8054 97.7013 38.1215 98.6112 39.5754 99.2401C41.0292 99.869 42.5923 100.204 44.1755 100.227C45.7586 100.25 47.3307 99.9605 48.8021 99.3741C50.2735 98.7878 51.6154 97.9164 52.751 96.81C53.8867 95.7035 54.7939 94.3835 55.421 92.9253C56.048 91.4672 56.3825 89.8994 56.4054 88.3116C56.4054 88.3003 56.4054 88.289 56.4054 88.28L32.2948 87.9297Z" fill="#263238"/>
<path d="M35.8843 88.0133C35.8595 89.6922 36.3318 91.3407 37.2412 92.7504C38.1507 94.1601 39.4566 95.2677 40.9938 95.9329C42.5309 96.5981 44.2303 96.7912 45.8768 96.4877C47.5234 96.1842 49.0432 95.3977 50.244 94.2278C51.4449 93.0578 52.2728 91.557 52.6231 89.915C52.9734 88.2731 52.8303 86.5639 52.2119 85.0035C51.5936 83.4432 50.5277 82.1018 49.1491 81.1491C47.7706 80.1964 46.1413 79.6751 44.4673 79.6513C42.2237 79.6192 40.0593 80.4821 38.4498 82.0501C36.8403 83.6182 35.9176 85.7631 35.8843 88.0133Z" fill="#FAFAFA"/>
<path d="M44.4673 79.6488C42.2235 79.6162 40.0588 80.4789 38.4492 82.0471C36.8396 83.6152 35.917 85.7605 35.8843 88.0108L52.8091 88.2572C52.841 86.0062 51.9801 83.8347 50.4157 82.2203C48.8513 80.606 46.7116 79.681 44.4673 79.6488Z" fill="#E0E0E0"/>
<path d="M39.1922 88.0609C39.1772 89.0836 39.4649 90.0879 40.019 90.9466C40.573 91.8053 41.3686 92.4799 42.305 92.8851C43.2414 93.2903 44.2766 93.4078 45.2796 93.2229C46.2826 93.0379 47.2084 92.5587 47.9399 91.846C48.6714 91.1332 49.1756 90.2189 49.3889 89.2187C49.6022 88.2184 49.5149 87.1772 49.1381 86.2267C48.7613 85.2763 48.1119 84.4592 47.2721 83.879C46.4323 83.2987 45.4397 82.9813 44.42 82.9669C43.7432 82.957 43.0711 83.0809 42.4421 83.3316C41.8131 83.5823 41.2395 83.9548 40.754 84.4278C40.2686 84.9009 39.8808 85.4652 39.6128 86.0885C39.3448 86.7119 39.2019 87.3821 39.1922 88.0609Z" fill="#263238"/>
<path d="M137.234 100.194C143.881 99.8074 148.956 94.0897 148.571 87.4232C148.185 80.7567 142.484 75.666 135.838 76.0527C129.191 76.4394 124.115 82.1572 124.501 88.8236C124.886 95.4901 130.587 100.581 137.234 100.194Z" fill="#263238"/>
<path d="M124.479 87.9297C124.479 87.941 124.479 87.9523 124.479 87.9613C124.456 89.5491 124.745 91.1259 125.329 92.6017C125.914 94.0774 126.783 95.4232 127.886 96.5623C128.989 97.7013 130.305 98.6112 131.759 99.2401C133.213 99.869 134.776 100.204 136.359 100.227C137.942 100.25 139.515 99.9605 140.986 99.3741C142.457 98.7878 143.799 97.9164 144.935 96.81C146.071 95.7035 146.978 94.3835 147.605 92.9253C148.232 91.4672 148.566 89.8994 148.589 88.3116C148.589 88.3003 148.589 88.289 148.589 88.28L124.479 87.9297Z" fill="#263238"/>
<path d="M128.068 88.0133C128.043 89.6922 128.516 91.3407 129.425 92.7504C130.335 94.1601 131.641 95.2677 133.178 95.9329C134.715 96.5981 136.414 96.7912 138.061 96.4877C139.707 96.1842 141.227 95.3977 142.428 94.2278C143.629 93.0578 144.457 91.557 144.807 89.915C145.157 88.2731 145.014 86.5639 144.396 85.0035C143.777 83.4432 142.712 82.1018 141.333 81.1491C139.954 80.1964 138.325 79.6751 136.651 79.6513C134.408 79.6192 132.243 80.4821 130.634 82.0501C129.024 83.6182 128.101 85.7631 128.068 88.0133Z" fill="#FAFAFA"/>
<path d="M136.651 79.6488C134.407 79.6162 132.243 80.4789 130.633 82.0471C129.023 83.6152 128.101 85.7605 128.068 88.0108L144.993 88.2572C145.025 86.0062 144.164 83.8347 142.6 82.2203C141.035 80.606 138.896 79.681 136.651 79.6488Z" fill="#E0E0E0"/>
<path d="M131.369 88.0609C131.354 89.0836 131.642 90.0879 132.196 90.9466C132.75 91.8053 133.546 92.4799 134.482 92.8851C135.419 93.2903 136.454 93.4078 137.457 93.2229C138.46 93.0379 139.386 92.5587 140.117 91.846C140.848 91.1332 141.353 90.2189 141.566 89.2187C141.779 88.2184 141.692 87.1772 141.315 86.2267C140.938 85.2763 140.289 84.4592 139.449 83.879C138.609 83.2987 137.617 82.9813 136.597 82.9669C135.92 82.957 135.248 83.0809 134.619 83.3316C133.99 83.5823 133.417 83.9548 132.931 84.4278C132.446 84.9009 132.058 85.4652 131.79 86.0885C131.522 86.7119 131.379 87.3821 131.369 88.0609Z" fill="#263238"/>
<path d="M60.1482 59.5102C60.1482 59.5102 42.3965 60.8233 35.8122 62.3036C31.1749 63.3454 22.2336 65.1466 22.3418 70.7876L23.0516 74.833C23.0516 74.833 19.7369 76.3517 19.7369 80.2299C19.7369 84.108 18.928 90.1196 26.6705 90.3615C27.9458 90.3999 30.3682 90.3615 30.3682 90.3615C30.3682 90.3615 28.8832 73.8228 44.0301 73.3391C59.4407 72.8465 58.4177 90.21 58.4177 90.21H122.735C122.735 90.21 120.094 73.2939 136.683 73.26C153.272 73.2261 150.748 90.3208 150.748 90.3208C150.748 90.3208 156.85 90.8496 159.689 85.7059C162.528 80.5621 161.792 76.8919 161.792 76.8919L161.697 73.6397C161.679 73.106 161.46 72.5991 161.083 72.2214C160.707 71.8438 160.201 71.6237 159.669 71.6057C159.669 71.6057 160.778 63.42 159.076 62.003C157.375 60.586 148.053 52.0364 148.053 52.0364L148.504 51.7584C148.671 51.6525 148.804 51.5012 148.889 51.3222C148.974 51.1432 149.007 50.9437 148.983 50.7469C148.96 50.55 148.881 50.364 148.756 50.2102C148.631 50.0564 148.466 49.9413 148.278 49.8781C144.738 48.6577 137.74 46.2417 136.095 45.6654C135.848 45.5776 135.591 45.5229 135.331 45.5027C134.348 45.4281 131.568 45.2519 126.464 45.1976C120.247 45.1298 95.5639 45.1976 95.5639 45.1976C95.5639 45.1976 87.0688 45.8982 82.3368 47.9865C77.375 50.1832 60.1482 59.5102 60.1482 59.5102Z" fill="#00A08D"/>
<g opacity="0.4">
<path d="M24.2391 79.778C23.5946 79.6469 22.6077 79.6356 22.1165 80.0718C21.7514 80.3972 21.6545 80.9238 21.6004 81.4097C21.497 82.0753 21.5122 82.7541 21.6455 83.4143C21.7135 83.7441 21.8487 84.0562 22.0425 84.3312C22.2364 84.6061 22.4848 84.838 22.7722 85.0121C23.3626 85.333 24.1693 85.2811 24.6267 84.7861C25.0458 84.3341 25.0931 83.6561 25.0773 83.0527C25.0616 82.1803 25.1314 81.4413 24.9714 80.5848C24.9361 80.403 24.859 80.2319 24.7461 80.0853C24.69 79.9976 24.6144 79.924 24.5253 79.8703C24.4362 79.8166 24.3359 79.7842 24.2323 79.7757" fill="black"/>
</g>
<path d="M23.0561 74.8331C24.9399 74.8331 26.7673 74.7292 28.6489 74.6071C28.8538 74.6162 29.0557 74.5548 29.2212 74.4331C29.2969 74.3387 29.3532 74.2302 29.3869 74.1138C29.4205 73.9974 29.4308 73.8755 29.4173 73.7551C29.4173 72.7426 29.3767 71.59 28.6106 70.9301C28.1419 70.5278 27.4997 70.4013 26.8845 70.3448C25.3569 70.1792 23.8116 70.3331 22.3463 70.7968L23.0561 74.8331Z" fill="#FAFAFA"/>
<path d="M62.192 89.6923C62.192 89.6923 62.192 89.638 62.1785 89.5295C62.165 89.4211 62.1604 89.2606 62.1469 89.0549C62.1244 88.6346 62.0906 88.0221 62.0478 87.2311C62.005 86.4401 61.9509 85.4706 61.8382 84.3496C61.7219 83.0804 61.4995 81.8232 61.1735 80.5912C60.7622 79.1031 60.152 77.6777 59.3596 76.3537C58.462 74.8249 57.2692 73.491 55.8511 72.4304C52.8114 70.2608 48.7035 69.0404 44.4064 68.9816C40.1093 68.9229 35.9993 70.2856 33.0339 72.5705C31.6124 73.6252 30.3673 74.8999 29.3452 76.347C28.4527 77.6033 27.727 78.9708 27.1865 80.415C26.7406 81.6086 26.4343 82.8501 26.2739 84.1146C26.1482 85.0681 26.1112 86.0312 26.1635 86.9916C26.2004 87.5984 26.2757 88.2023 26.3888 88.7996C26.4248 89.0007 26.4541 89.1566 26.4722 89.2651C26.4902 89.3736 26.4969 89.4256 26.4969 89.4256C26.4969 89.4256 26.4834 89.3736 26.4609 89.2696L26.364 88.8176C26.2414 88.2213 26.16 87.6172 26.1206 87.0096C26.0594 86.0462 26.0896 85.0791 26.2108 84.1214C26.3661 82.8505 26.6686 81.602 27.1121 80.4014C27.6508 78.9458 28.3765 77.5668 29.2708 76.2995C30.2953 74.8408 31.5459 73.5559 32.9753 72.4937C35.9542 70.1975 40.0733 68.8212 44.4042 68.8777C48.7351 68.9342 52.8497 70.1659 55.9142 72.3558C57.3408 73.427 58.5397 74.7732 59.4407 76.3153C60.2324 77.6495 60.8389 79.0858 61.2433 80.5845C61.5675 81.8216 61.7854 83.0842 61.8946 84.3587C62.0005 85.4887 62.0478 86.4514 62.0838 87.2424C62.1199 88.0334 62.1447 88.6481 62.1627 89.0685C62.1627 89.2742 62.1762 89.4324 62.1807 89.5431C62.1852 89.6538 62.192 89.6923 62.192 89.6923Z" fill="white"/>
<path d="M62.868 89.9728V89.8372L62.8545 89.4372C62.8432 89.0801 62.8274 88.5581 62.8049 87.8756C62.7666 86.5037 62.7103 84.4991 62.6382 81.9476C62.566 79.396 62.4827 76.2976 62.3858 72.7494C62.361 71.8612 62.3385 70.9414 62.3114 70.0035C62.2956 69.5242 62.3167 69.0444 62.3745 68.5684L62.4759 67.8407L62.6246 67.1107C62.858 66.1134 63.194 65.1432 63.6274 64.2156C64.0736 63.2433 64.6252 62.3232 65.2723 61.472L76.4105 54.4343L79.4187 52.5359C80.4327 51.8602 81.4972 51.264 82.6027 50.7528C83.7332 50.2188 84.8933 49.7502 86.0773 49.3493C86.6677 49.1414 87.2738 48.9719 87.88 48.7911C88.4861 48.6103 89.1035 48.4612 89.73 48.3391C92.0921 47.8323 94.4932 47.5299 96.9068 47.4351C99.2229 47.3238 101.543 47.3314 103.858 47.4577H103.924L103.908 47.5233L100.916 60.9499C100.363 61.8604 99.9094 62.828 99.5635 63.8359C99.2231 64.7919 99.07 65.8049 99.1129 66.8191C99.1895 67.8113 99.2165 68.7831 99.2413 69.7255C99.2661 70.6679 99.2773 71.581 99.2954 72.4691C99.3472 76.0173 99.3607 79.1113 99.3697 81.6606C99.3787 84.2098 99.3697 86.2145 99.3697 87.584C99.3697 88.262 99.3697 88.7886 99.3697 89.1457C99.3697 89.3197 99.3697 89.453 99.3697 89.5457C99.3697 89.6384 99.3697 89.6813 99.3697 89.6813C99.3697 89.6813 99.3697 89.6338 99.3697 89.5457C99.3697 89.4576 99.3697 89.3197 99.3697 89.1457C99.3697 88.7886 99.3697 88.2665 99.3697 87.584C99.3697 86.2145 99.3495 84.2098 99.3337 81.6628C99.3179 79.1158 99.2954 76.0128 99.2345 72.4691C99.2165 71.5832 99.197 70.6694 99.1759 69.7278C99.1489 68.7853 99.1219 67.8181 99.043 66.8259C98.9973 65.799 99.1503 64.7729 99.4937 63.8043C99.8372 62.7882 100.291 61.8129 100.846 60.8957V60.9115C101.763 56.778 102.766 52.267 103.827 47.4826L103.879 47.5504C101.569 47.4255 99.2536 47.4195 96.9429 47.5323C94.5351 47.6258 92.1398 47.9282 89.7841 48.4363C89.1599 48.5606 88.5515 48.7346 87.9408 48.8883C87.3302 49.042 86.733 49.2386 86.1382 49.4443C84.9541 49.8458 83.794 50.3151 82.6635 50.85C81.5635 51.3578 80.5043 51.9502 79.4953 52.6218L76.4849 54.5202L65.3467 61.542V61.5307C64.7008 62.3763 64.1506 63.2912 63.7062 64.2586C63.2734 65.179 62.938 66.1426 62.7058 67.1333C62.1988 69.0701 62.4534 70.9753 62.4579 72.7494L62.6832 81.9476C62.7441 84.4969 62.7914 86.5037 62.8229 87.8733C62.8387 88.5513 62.8477 89.0801 62.8567 89.4372C62.8567 89.6105 62.8567 89.7438 62.8567 89.8372C62.868 89.9276 62.868 89.9728 62.868 89.9728Z" fill="#263238"/>
<path d="M103.777 47.8305H103.883L104.192 47.8192L105.388 47.7898L109.825 47.7039L124.783 47.4463H124.812L124.83 47.4689L126.926 50.043C129.048 52.6578 131.072 55.1438 132.911 57.4038L133.587 58.2401C133.805 58.5203 133.994 58.8234 134.148 59.1441C134.427 59.7387 134.579 60.3855 134.593 61.0426C134.607 61.6997 134.484 62.3526 134.231 62.9589L133.555 64.5409L131.486 69.3412L130.919 70.6429L130.768 70.9819C130.734 71.0565 130.714 71.0949 130.714 71.0949C130.714 71.0949 130.727 71.0542 130.756 70.9774C130.786 70.9006 130.838 70.7808 130.896 70.6339C131.025 70.3311 131.207 69.8881 131.444 69.3231L133.472 64.5093C133.859 63.4878 134.542 62.412 134.495 61.1012C134.485 60.435 134.331 59.7789 134.044 59.1779C133.893 58.8658 133.709 58.5711 133.494 58.2988L132.818 57.4626L126.827 50.1086L124.733 47.5344L124.778 47.557L109.818 47.783L105.382 47.835H104.185H103.879L103.777 47.8305Z" fill="#263238"/>
<path d="M96.2173 67.7816C96.2173 67.7816 96.2804 67.7816 96.3953 67.7545C96.5644 67.7244 96.7254 67.6598 96.8685 67.5646C97.0956 67.4161 97.2656 67.1945 97.3508 66.9364C97.4024 66.776 97.4238 66.6074 97.4138 66.4392C97.4085 66.2516 97.3607 66.0676 97.2741 65.9013C97.1734 65.7119 97.0239 65.5532 96.8412 65.4415C96.6585 65.3298 96.4493 65.2693 96.2354 65.2662H94.7166H91.2352C90.9412 65.2667 90.658 65.378 90.442 65.5781C90.2312 65.7706 90.0967 66.0331 90.0635 66.3171C90.0293 66.5916 90.0796 66.87 90.2077 67.1149C90.3384 67.345 90.5412 67.5253 90.7845 67.6279C91.0255 67.7108 91.2811 67.7424 91.5349 67.7206H92.2717H93.5967L95.5143 67.7387L96.0348 67.75C96.0959 67.7487 96.1571 67.7532 96.2173 67.7635C96.1567 67.7706 96.0958 67.7744 96.0348 67.7748H95.5143L93.5967 67.7929H92.2717H91.5349C91.4065 67.7929 91.2825 67.7929 91.1451 67.7929C91.0072 67.7844 90.8717 67.7531 90.744 67.7002C90.4768 67.5902 90.2539 67.3937 90.1108 67.142C89.9678 66.8776 89.9118 66.5747 89.9508 66.2764C89.9862 65.9594 90.1367 65.6665 90.3735 65.4535C90.6104 65.2405 90.9171 65.1224 91.2352 65.1216H94.7166H96.2376C96.4676 65.1264 96.6919 65.1935 96.8871 65.3156C97.0822 65.4377 97.2408 65.6104 97.3463 65.8154C97.4365 65.9934 97.485 66.1898 97.4882 66.3894C97.4955 66.5658 97.4703 66.742 97.4138 66.9092C97.3186 67.1777 97.135 67.4057 96.8933 67.5556C96.7443 67.6507 96.5754 67.7102 96.3998 67.7296C96.3413 67.7542 96.28 67.7716 96.2173 67.7816Z" fill="#263238"/>
<path d="M129.567 67.7816C129.567 67.7816 129.63 67.7816 129.745 67.7545C129.914 67.7244 130.075 67.6598 130.218 67.5646C130.445 67.4161 130.615 67.1945 130.7 66.9364C130.752 66.776 130.773 66.6074 130.763 66.4392C130.758 66.2516 130.71 66.0676 130.623 65.9013C130.523 65.7119 130.373 65.5532 130.191 65.4415C130.008 65.3298 129.799 65.2693 129.585 65.2662H128.066H124.585C124.291 65.2667 124.007 65.378 123.791 65.5781C123.58 65.7706 123.446 66.0331 123.413 66.3171C123.379 66.5916 123.429 66.87 123.557 67.1149C123.688 67.345 123.891 67.5253 124.134 67.6279C124.375 67.7108 124.63 67.7424 124.884 67.7206H125.621H126.946L128.864 67.7387L129.384 67.75C129.445 67.7487 129.506 67.7532 129.567 67.7635C129.506 67.7706 129.445 67.7744 129.384 67.7748H128.864L126.946 67.7929H125.621H124.884C124.756 67.7929 124.632 67.7929 124.494 67.7929C124.357 67.7844 124.221 67.7531 124.093 67.7002C123.826 67.5902 123.603 67.3937 123.46 67.142C123.317 66.8776 123.261 66.5747 123.3 66.2764C123.336 65.9594 123.486 65.6665 123.723 65.4535C123.96 65.2405 124.266 65.1224 124.585 65.1216H128.066H129.587C129.817 65.1264 130.041 65.1935 130.236 65.3156C130.432 65.4377 130.59 65.6104 130.696 65.8154C130.786 65.9934 130.834 66.1898 130.838 66.3894C130.845 66.5658 130.82 66.742 130.763 66.9092C130.668 67.1777 130.484 67.4057 130.243 67.5556C130.094 67.6507 129.925 67.7102 129.749 67.7296C129.691 67.7542 129.629 67.7716 129.567 67.7816Z" fill="#263238"/>
<path d="M158.79 62.3262H152.12C151.672 62.3261 151.232 62.4487 150.848 62.6809C150.464 62.9131 150.151 63.246 149.941 63.6437C149.769 63.9728 149.674 64.3366 149.661 64.7079C149.649 65.0792 149.72 65.4485 149.869 65.7885L152.483 71.7481L159.162 71.6826C159.162 71.6826 160.584 64.1274 158.79 62.3262Z" fill="#FAFAFA"/>
<path d="M66.1579 61.4834L100.573 60.8461L122.971 60.4347L130.358 56.1566C130.498 56.0746 130.619 55.9636 130.714 55.8309C130.808 55.6983 130.874 55.547 130.905 55.3872C130.937 55.2274 130.935 55.0626 130.898 54.9038C130.861 54.745 130.792 54.5958 130.693 54.4661L126.094 48.407C125.858 48.0951 125.554 47.8416 125.204 47.6661C124.855 47.4905 124.47 47.3977 124.08 47.3945L99.0272 47.1911C99.0272 47.1911 89.5948 46.6397 82.161 50.8071C74.3442 55.2074 66.1579 61.4834 66.1579 61.4834Z" fill="#263238"/>
<path d="M81.9289 47.8169C81.9289 47.8169 83.655 48.6056 82.5328 49.3356C81.4107 50.0656 63.9744 61.0876 63.9744 61.0876L59.9657 59.2683C67.066 55.3065 74.2361 51.4532 81.9289 47.8169Z" fill="#455A64"/>
<path d="M64.5377 61.3677L64.4296 61.3948L64.1118 61.4649L62.8883 61.718C61.8247 61.9304 60.2834 62.2287 58.3816 62.5587C54.5509 63.2186 49.2511 63.987 43.3541 64.4978C41.8782 64.6266 40.4248 64.7238 39.0458 64.8232C37.6667 64.9227 36.3102 65.0018 35.0348 65.117C32.4818 65.343 30.1969 65.7137 28.3402 66.2674C26.8644 66.6789 25.4441 67.2694 24.1107 68.0256C23.6307 68.2788 23.2882 68.5274 23.0471 68.6765L22.7722 68.8505L22.6753 68.907C22.7042 68.8837 22.7343 68.8618 22.7654 68.8415L23.0336 68.6562C23.2724 68.5002 23.6104 68.2449 24.0881 67.9782C25.4134 67.2012 26.8305 66.5939 28.3064 66.1702C30.1676 65.6029 32.4593 65.221 35.0145 64.9927C36.2922 64.8707 37.6352 64.7848 39.0277 64.6921C40.4203 64.5995 41.8602 64.491 43.3339 64.3622C49.2286 63.8514 54.5352 63.0966 58.3591 62.457C60.2722 62.1383 61.8134 61.8536 62.8793 61.6547L64.1073 61.4287L64.4273 61.3699L64.5377 61.3677Z" fill="#263238"/>
<path d="M161.456 76.8239C161.456 76.8578 159.162 76.8827 156.334 76.8827C153.506 76.8827 151.21 76.8578 151.21 76.8239C151.21 76.79 153.504 76.7651 156.334 76.7651C159.164 76.7651 161.456 76.7923 161.456 76.8239Z" fill="#263238"/>
<path d="M119.492 82.6955C119.492 82.7294 106.544 82.7542 90.575 82.7542C74.6056 82.7542 61.6557 82.7294 61.6557 82.6955C61.6557 82.6616 74.6011 82.6367 90.575 82.6367C106.549 82.6367 119.492 82.6638 119.492 82.6955Z" fill="#263238"/>
<path d="M28.8427 77.0182C28.8427 77.0521 27.0107 77.077 24.7529 77.077C22.495 77.077 20.6631 77.0521 20.6631 77.0182C20.6631 76.9843 22.495 76.9595 24.7529 76.9595C27.0107 76.9595 28.8427 76.9866 28.8427 77.0182Z" fill="#263238"/>
<path d="M147.88 51.8013C147.88 51.8013 146.343 53.5256 146.947 54.7912C147.551 56.0568 153.795 60.491 153.795 60.491L158.326 61.343L147.88 51.8013Z" fill="#455A64"/>
<path d="M104.796 48.7119L103.777 59.7498L122.011 59.2277L129.359 54.9427L124.603 48.7119H104.796Z" fill="#455A64"/>
<path d="M70.4753 60.3149C70.4753 60.3149 81.476 52.3462 85.8159 50.7619C90.0049 49.2341 92.1884 48.8499 96.1227 48.7279C99.8835 48.6194 102.175 48.7279 102.175 48.7279L99.2683 59.9488L70.4753 60.3149Z" fill="#455A64"/>
<path d="M68.8664 60.3418C68.8665 59.9987 68.9576 59.6618 69.1302 59.3655C69.3029 59.0693 69.5508 58.8244 69.8488 58.6558L72.3771 57.232C73.0972 56.8254 73.9099 56.6121 74.7363 56.6128C75.2452 56.6135 75.7509 56.6943 76.2348 56.8524C76.7615 57.0351 77.2202 57.3747 77.5496 57.8258C77.8789 58.2768 78.0632 58.8179 78.078 59.3768C78.0922 59.7521 78.0308 60.1265 77.8973 60.4775C77.7639 60.8285 77.5612 61.1489 77.3013 61.4194C77.0415 61.6899 76.7299 61.9051 76.3851 62.0519C76.0404 62.1988 75.6697 62.2744 75.2951 62.2741H70.7885C70.2783 62.2729 69.7894 62.0688 69.4291 61.7065C69.0687 61.3443 68.8664 60.8535 68.8664 60.3418Z" fill="#00A08D"/>
<path d="M68.8664 60.3418C68.8664 60.3418 68.8664 60.4277 68.8957 60.5859C68.9297 60.8186 69.0061 61.0431 69.121 61.2481C69.3031 61.571 69.5716 61.8364 69.8961 62.0142C70.0986 62.1205 70.3184 62.1894 70.5451 62.2176C70.8038 62.2368 71.0633 62.2421 71.3225 62.2335L75.178 62.2199C75.5434 62.2297 75.9073 62.1699 76.2505 62.0436C76.6127 61.9078 76.9421 61.6965 77.2171 61.4239C77.492 61.1512 77.7063 60.8233 77.8459 60.4616C77.9878 60.0801 78.0455 59.6722 78.0149 59.2661C77.9847 58.8659 77.8671 58.4772 77.6705 58.1277C77.4738 57.7781 77.2029 57.4762 76.877 57.2434C76.5623 57.0252 76.2077 56.8716 75.8337 56.7914C74.8061 56.5477 73.727 56.6518 72.7646 57.0874C72.474 57.2185 72.2081 57.3835 71.9444 57.5259L71.1918 57.9462L69.8961 58.6649C69.5702 58.8409 69.3012 59.1067 69.121 59.4311C69.0073 59.6366 68.931 59.8609 68.8957 60.0932C68.8731 60.2514 68.8754 60.3373 68.8686 60.3373C68.8602 60.2547 68.8602 60.1714 68.8686 60.0887C68.8939 59.8515 68.9643 59.6214 69.0759 59.4107C69.2531 59.0732 69.5249 58.795 69.8578 58.6107L71.1445 57.8762L71.8926 57.449C72.154 57.3044 72.4199 57.1372 72.7173 56.997C73.6978 56.5443 74.8009 56.433 75.8517 56.6806C76.2392 56.7579 76.6076 56.9115 76.9356 57.1326C77.2763 57.3747 77.5595 57.6892 77.7652 58.0537C77.9708 58.4182 78.0938 58.8236 78.1253 59.2412C78.1583 59.6649 78.0983 60.0908 77.9496 60.4887C77.8041 60.8666 77.5802 61.2091 77.2927 61.4935C77.0053 61.7779 76.6608 61.9978 76.2821 62.1385C75.9262 62.2671 75.5494 62.3277 75.1712 62.3171L71.3157 62.3058C71.0533 62.3114 70.7908 62.3031 70.5293 62.2809C70.2921 62.2479 70.0629 62.1713 69.8533 62.0549C69.5213 61.8686 69.2492 61.5911 69.0692 61.2549C68.959 61.0438 68.8895 60.8138 68.8641 60.5769C68.8586 60.4986 68.8594 60.42 68.8664 60.3418Z" fill="#263238"/>
<path d="M153.619 89.7944C153.619 89.7944 153.619 89.7424 153.619 89.6385C153.619 89.5345 153.637 89.3786 153.65 89.1865C153.664 88.9944 153.686 88.7345 153.7 88.4407C153.713 88.1469 153.722 87.8033 153.734 87.4214C153.745 87.0395 153.734 86.6101 153.734 86.1445C153.734 85.6789 153.7 85.1704 153.637 84.628C153.534 83.3988 153.316 82.182 152.986 80.994C152.791 80.3009 152.551 79.6214 152.267 78.96C151.965 78.2453 151.602 77.5587 151.181 76.9079C150.242 75.4732 149.047 74.2244 147.656 73.2241C146.126 72.1096 144.418 71.2643 142.604 70.7245C140.725 70.1482 138.679 69.938 136.597 69.9222C134.566 69.9036 132.545 70.1986 130.603 70.7968C129.684 71.0881 128.791 71.4578 127.935 71.902C127.119 72.337 126.344 72.8453 125.619 73.4207C124.271 74.4792 123.071 75.7135 122.05 77.0909C121.6 77.7231 121.204 78.3913 120.864 79.0888C120.555 79.7353 120.281 80.3984 120.044 81.0753C119.324 83.1152 118.886 85.2443 118.742 87.4033C118.706 88.1695 118.71 88.7593 118.73 89.1706C118.742 89.3695 118.751 89.5209 118.755 89.6226C118.76 89.7243 118.755 89.7786 118.755 89.7786C118.755 89.7786 118.755 89.7266 118.737 89.6226C118.719 89.5187 118.715 89.3627 118.699 89.1706C118.669 88.5812 118.669 87.9905 118.699 87.4011C118.823 85.2299 119.25 83.087 119.967 81.0346C120.204 80.3548 120.476 79.6879 120.783 79.0368C121.126 78.3342 121.524 77.6601 121.973 77.0209C122.998 75.6346 124.202 74.3912 125.553 73.3235C126.283 72.7437 127.063 72.2309 127.883 71.7912C128.745 71.3435 129.644 70.9708 130.569 70.6771C132.522 70.0717 134.556 69.7736 136.599 69.7934C138.69 69.8092 140.745 70.0194 142.641 70.6025C144.466 71.1474 146.185 72.0003 147.724 73.1246C148.437 73.6509 149.103 74.2377 149.716 74.8784C150.298 75.4796 150.817 76.1392 151.264 76.8469C151.687 77.5036 152.051 78.1963 152.352 78.917C152.636 79.5782 152.874 80.2578 153.067 80.951C153.395 82.1451 153.609 83.3681 153.704 84.6032C153.765 85.1456 153.765 85.6541 153.79 86.1219C153.815 86.5897 153.79 87.0259 153.79 87.4011C153.79 87.7762 153.756 88.1265 153.743 88.4226C153.729 88.7186 153.7 88.965 153.682 89.1684C153.664 89.3718 153.65 89.5187 153.641 89.6204C153.632 89.7221 153.619 89.7944 153.619 89.7944Z" fill="white"/>
<path d="M98.7343 61.4834H98.5811L97.993 61.497L95.832 61.5354C94.0068 61.5693 91.4876 61.6371 88.7025 61.7139C85.9173 61.7908 83.3959 61.8427 81.5707 61.8563C80.6581 61.8563 79.919 61.8563 79.4075 61.8563H78.8193H78.6684C78.6505 61.8597 78.6322 61.8597 78.6143 61.8563C78.6322 61.8534 78.6505 61.8534 78.6684 61.8563H78.8193L79.4075 61.8427L81.5684 61.8043C83.3936 61.7704 85.9151 61.7026 88.7002 61.628C91.4853 61.5535 94.0068 61.497 95.832 61.4834C96.7333 61.4834 97.4837 61.4834 97.993 61.4834H98.5811H98.7343Z" fill="white"/>
<path d="M95.7982 64.8798C95.142 64.9393 94.4828 64.9589 93.8243 64.9385C93.1657 64.9589 92.5066 64.9393 91.8504 64.8798C92.5066 64.8216 93.1657 64.802 93.8243 64.821C94.4828 64.802 95.142 64.8216 95.7982 64.8798Z" fill="white"/>
<path d="M96.5238 52.7868C96.5351 52.8162 94.0857 53.8399 91.0504 55.0716C88.0152 56.3033 85.5455 57.2797 85.532 57.248C85.5185 57.2164 87.9701 56.1949 91.0054 54.9632C94.0406 53.7315 96.5103 52.7574 96.5238 52.7868Z" fill="white"/>
<path d="M91.5574 53.5619C91.571 53.5935 89.2365 54.6241 86.3455 55.8648C83.4545 57.1056 81.102 58.0887 81.0885 58.0593C81.0749 58.0299 83.4094 56.9993 86.3004 55.7563C89.1914 54.5133 91.5439 53.528 91.5574 53.5619Z" fill="white"/>
<path d="M123.05 52.3596C123.064 52.389 120.612 53.4128 117.577 54.6445C114.541 55.8762 112.072 56.8503 112.058 56.8209C112.045 56.7915 114.496 55.7677 117.534 54.536C120.571 53.3043 123.032 52.328 123.05 52.3596Z" fill="white"/>
<path d="M118.075 53.1302C118.088 53.1618 115.754 54.1924 112.865 55.4331C109.976 56.6739 107.619 57.657 107.606 57.6276C107.592 57.5982 109.927 56.5677 112.818 55.3247C115.709 54.0817 118.075 53.1099 118.075 53.1302Z" fill="white"/>
<path d="M123.53 61.4721C123.53 61.5037 118.656 61.5602 112.644 61.5964C106.632 61.6326 101.758 61.6348 101.758 61.5964C101.758 61.558 106.63 61.5083 112.644 61.4744C118.658 61.4405 123.53 61.4472 123.53 61.4721Z" fill="white"/>
<path d="M128.927 64.6925C128.927 64.7242 127.561 64.7626 125.873 64.7784C124.186 64.7942 122.82 64.7784 122.82 64.749C122.82 64.7196 124.186 64.6767 125.873 64.6609C127.561 64.6451 128.927 64.6586 128.927 64.6925Z" fill="white"/>
<path d="M35.6027 63.02C35.5597 63.0346 35.515 63.0437 35.4697 63.0471L35.0889 63.0969C34.9222 63.1149 34.7194 63.1398 34.485 63.1805C34.2507 63.2212 33.9825 63.2505 33.6896 63.3093C33.1015 63.4133 32.4052 63.5669 31.6436 63.7613C30.8185 63.9896 30.0055 64.2597 29.2077 64.5704C28.3605 64.9071 27.574 65.2755 26.871 65.6394C26.168 66.0032 25.5596 66.3693 25.0683 66.697C24.8137 66.853 24.5929 67.0112 24.3923 67.149C24.1918 67.2869 24.0273 67.3999 23.8921 67.4993L23.5789 67.7253C23.543 67.7531 23.5045 67.7773 23.464 67.7977C23.4938 67.7642 23.527 67.7339 23.5631 67.7073L23.8651 67.4654C23.9957 67.3615 24.158 67.2394 24.354 67.0971C24.5501 66.9547 24.7641 66.7965 25.03 66.6451C25.5258 66.3083 26.1387 65.9399 26.8327 65.5625C28.3521 64.7478 29.9614 64.1145 31.6278 63.6754C32.3939 63.4765 33.0947 63.3296 33.6873 63.237C33.9825 63.1827 34.2507 63.1556 34.4873 63.124C34.7239 63.0923 34.9379 63.072 35.0934 63.0607L35.4787 63.0313C35.5197 63.0246 35.5611 63.0208 35.6027 63.02Z" fill="white"/>
<path d="M75.8427 57.6886C75.8427 57.6886 75.7773 57.6004 75.6174 57.4784C75.4013 57.3124 75.1442 57.2085 74.8738 57.1778C74.4682 57.1439 74.0598 57.1876 73.6705 57.3066C72.2984 57.6532 71.0241 58.3112 69.9457 59.2299C69.4094 59.6819 69.1255 60.0141 69.1097 59.9983C69.1643 59.912 69.2277 59.8317 69.299 59.7587C69.4853 59.5511 69.6824 59.3535 69.8894 59.1666C70.5778 58.5517 71.3598 58.0512 72.2058 57.6841C72.6702 57.4801 73.1522 57.319 73.6457 57.2027C74.0477 57.0854 74.4688 57.0485 74.885 57.0942C75.1678 57.1331 75.4328 57.2549 75.6467 57.4445C75.7035 57.4956 75.7542 57.5533 75.7976 57.6163C75.8337 57.6615 75.8472 57.6863 75.8427 57.6886Z" fill="white"/>
<path d="M148.391 51.7201C148.077 51.7962 147.754 51.8297 147.431 51.8195C147.052 51.8081 146.675 51.7612 146.304 51.6794C145.816 51.5641 145.336 51.413 144.869 51.2274C144.349 51.0308 143.794 50.7754 143.195 50.5245L142.26 50.1471C141.937 50.0183 141.597 49.9076 141.255 49.781C139.751 49.2702 138.217 48.8513 136.662 48.5267C133.836 47.9366 130.966 47.5799 128.082 47.46C127.527 47.4306 127.027 47.4306 126.586 47.4193H125.459L124.747 47.4351H124.497C124.518 47.4311 124.539 47.4311 124.56 47.4351L124.745 47.4216L125.459 47.3831L126.586 47.3628C127.036 47.3628 127.527 47.3628 128.082 47.3899C130.974 47.4846 133.853 47.8325 136.685 48.4295C138.243 48.7505 139.779 49.1702 141.284 49.6861C141.627 49.8126 141.96 49.9256 142.291 50.0567L143.226 50.4432C143.826 50.7031 144.378 50.9562 144.894 51.1573C145.354 51.3435 145.828 51.4946 146.311 51.6093C146.676 51.6971 147.049 51.7501 147.424 51.7675C147.661 51.7757 147.898 51.7674 148.134 51.7427L148.317 51.7201H148.391Z" fill="#263238"/>
<path d="M39.9764 52.032C39.075 47.0872 38.4689 46.3278 37.9596 44.626C37.4504 42.9242 36.6414 41.8191 35.6342 41.4281C34.9582 41.166 31.5624 39.9388 30.3817 40.3456C29.2265 40.7575 28.1267 41.3117 27.1076 41.9954C26.3167 42.5215 25.7174 43.2907 25.3996 44.1876L23.5969 49.2884L26.7696 52.4524L28.3604 49.0624L30.0865 53.1304L29.8319 57.2323L39.7308 59.9036C40.6231 58.4572 40.4879 54.8367 39.9764 52.032Z" fill="#00A08D"/>
<g opacity="0.2">
<path d="M37.4053 46.6377C36.9682 49.2118 36.8983 49.5757 36.4612 52.1408C36.3102 53.0245 35.8708 54.4008 35.2444 55.0426C34.7802 55.515 34.325 55.9692 33.6783 56.1229C33.0789 56.2653 32.1663 56.2811 31.603 56.0325C31.0397 55.7839 30.5575 54.6765 30.7895 54.1093C31.63 54.2901 31.8892 54.5613 32.6125 54.1093C33.2434 53.707 34.1403 52.8165 34.4828 52.1498C35.9271 49.3474 36.326 49.248 37.4121 46.6377" fill="black"/>
</g>
<path d="M30.233 51.6252C30.0729 51.4089 29.9268 51.1824 29.7958 50.9472L28.7773 49.2681L27.7318 47.616C27.5759 47.3937 27.4351 47.1612 27.3104 46.9199C27.3646 46.9694 27.4123 47.0256 27.4524 47.0872C27.538 47.1979 27.6574 47.3629 27.7994 47.5685C28.0878 47.9799 28.4754 48.5562 28.8765 49.2048C29.2776 49.8534 29.6268 50.4546 29.8679 50.8953C29.9896 51.1213 30.0933 51.293 30.1473 51.4196C30.1864 51.4832 30.2153 51.5526 30.233 51.6252Z" fill="#263238"/>
<path d="M37.1417 56.2425C37.0699 56.2799 36.9944 56.3095 36.9164 56.3307C36.824 56.3616 36.73 56.3873 36.6347 56.4075C36.5102 56.4414 36.3838 56.4678 36.2561 56.4866C35.9258 56.5456 35.5911 56.5766 35.2557 56.5793C34.844 56.58 34.433 56.5444 34.0276 56.473C33.6225 56.3965 33.2251 56.2838 32.8401 56.1363C32.5286 56.0143 32.2272 55.8677 31.9387 55.6979C31.8126 55.6278 31.7134 55.551 31.6143 55.4899C31.5322 55.4364 31.4532 55.3783 31.3777 55.3159C31.309 55.2686 31.2462 55.2132 31.1906 55.1509C31.2042 55.1329 31.4836 55.3521 31.9793 55.6255C32.2699 55.7827 32.5711 55.9194 32.8806 56.0346C33.6413 56.319 34.4461 56.4667 35.2579 56.4708C35.5887 56.4712 35.9192 56.4493 36.2471 56.4052C36.7969 56.3261 37.1349 56.2199 37.1417 56.2425Z" fill="#263238"/>
<path d="M33.1691 48.5382C33.151 48.6263 32.0875 50.7507 32.0875 50.7507L27.067 48.0975L26.5555 45.9279C26.4711 45.5795 26.2526 45.2788 25.9477 45.0916C25.6428 44.9044 25.2764 44.8459 24.9286 44.929L23.4482 45.5369C23.3871 45.5608 23.3329 45.5996 23.2905 45.6497C23.248 45.6998 23.2186 45.7596 23.2048 45.8239C23.1845 45.9324 23.2048 46.0499 23.4009 46.0251C23.7682 45.9957 24.5275 45.9143 24.5275 45.9143L24.1783 47.1505C24.0861 47.4745 24.1216 47.8216 24.2774 48.1201L24.5027 48.5472L24.9917 49.3405H24.9805C24.9805 49.3405 29.8612 54.369 32.6012 54.6967C34.2484 54.8933 36.1142 50.2626 36.1142 50.2626L33.1691 48.5382Z" fill="#FAB48A"/>
<path d="M24.4915 45.998C24.4915 45.998 24.5298 45.946 24.6132 45.8895C24.7248 45.8116 24.8579 45.7705 24.994 45.772C25.065 45.776 25.1336 45.7991 25.1927 45.8389C25.2518 45.8786 25.2991 45.9336 25.3297 45.998C25.377 46.0997 25.3455 46.1675 25.3297 46.163C25.3139 46.1585 25.3297 46.0997 25.2756 46.0229C25.2424 45.9741 25.1986 45.9335 25.1474 45.9041C25.0963 45.8748 25.0392 45.8574 24.9805 45.8534C24.8585 45.8551 24.7387 45.8861 24.6312 45.9438C24.5613 45.9777 24.4982 46.0071 24.4915 45.998Z" fill="#DD916B"/>
<path d="M25.1247 46.7688C25.1247 46.7688 25.0909 46.7281 25.0435 46.6671C24.9831 46.5892 24.9029 46.5291 24.8113 46.4929C24.7198 46.4567 24.6202 46.4459 24.523 46.4614C24.4464 46.4614 24.3991 46.4886 24.3946 46.4795C24.3901 46.4705 24.4306 46.4366 24.5118 46.4095C24.619 46.3781 24.7335 46.3832 24.8375 46.4241C24.9415 46.465 25.029 46.5393 25.0864 46.6355C25.1269 46.7123 25.1314 46.7665 25.1247 46.7688Z" fill="#DD916B"/>
<path d="M34.2101 41.833L32.8581 48.2944L36.4634 50.4662L37.847 46.4954C37.847 46.4954 37.2656 41.6726 34.2101 41.833Z" fill="#00A08D"/>
<path d="M36.1525 41.9458C36.1525 41.9458 36.1232 41.9707 36.0601 42.0046C35.997 42.0385 35.9069 42.0882 35.7874 42.1492C35.5486 42.2712 35.1971 42.443 34.7577 42.6396C33.6153 43.1634 32.4126 43.5429 31.1771 43.7696C29.9338 43.9925 28.6576 43.9493 27.4321 43.6431C27.0653 43.5464 26.7078 43.4171 26.364 43.2566C26.2401 43.2046 26.1387 43.1481 26.0868 43.1165C26.0545 43.1003 26.0236 43.0814 25.9944 43.06C26.1264 43.1048 26.2558 43.1568 26.382 43.2159C26.7322 43.3578 27.0922 43.4741 27.4591 43.564C28.6754 43.8432 29.9352 43.874 31.1636 43.6544C32.3909 43.4278 33.5884 43.0615 34.7329 42.5628C35.1835 42.3775 35.5283 42.217 35.7739 42.1108C35.8963 42.0474 36.0228 41.9923 36.1525 41.9458Z" fill="#EBEBEB"/>
<path d="M37.1011 42.6602C37.0702 42.6881 37.0362 42.7124 36.9997 42.7325L36.7023 42.9246C36.5451 43.0279 36.3826 43.1229 36.2156 43.2093C36.0218 43.311 35.8055 43.4353 35.5508 43.5483L35.1588 43.7291C35.0213 43.7924 34.8726 43.8444 34.7216 43.9054C34.4219 44.0297 34.0884 44.1314 33.7414 44.2444C32.2199 44.7047 30.6298 44.8936 29.0432 44.8026C28.6782 44.7733 28.3312 44.7529 28.0112 44.7009C27.8489 44.6761 27.6935 44.6603 27.5447 44.6331L27.1189 44.5473C26.8485 44.4998 26.6074 44.4275 26.3955 44.3732C26.2134 44.3291 26.0336 44.2756 25.857 44.2128L25.5212 44.0953C25.481 44.0845 25.4424 44.0686 25.4063 44.0478C25.4479 44.0501 25.4889 44.0585 25.528 44.0727L25.8705 44.1676C26.017 44.2128 26.1972 44.2648 26.4113 44.31C26.6254 44.3552 26.862 44.4252 27.1369 44.4659L27.5605 44.5427C27.707 44.5699 27.8625 44.5834 28.0112 44.6038C28.3312 44.6512 28.6872 44.6693 29.0364 44.6942C30.6112 44.7744 32.1882 44.5872 33.7008 44.1405C34.0456 44.032 34.3768 43.9348 34.6765 43.8128C34.8253 43.754 34.974 43.7043 35.1114 43.6455L35.5058 43.4715C35.7604 43.3675 35.9767 43.2455 36.1818 43.1506C36.3868 43.0557 36.5446 42.963 36.6752 42.8862L36.9862 42.7144C37.0219 42.6912 37.0606 42.673 37.1011 42.6602Z" fill="#EBEBEB"/>
<path d="M36.4544 50.4657C36.3534 50.423 36.2555 50.3731 36.1615 50.3166L35.3683 49.8646L32.6643 48.2984L32.6305 48.2781V48.2396C32.7274 47.7583 32.8311 47.2385 32.9392 46.7051C33.1015 45.9005 33.2592 45.1367 33.3899 44.4451C33.4642 44.0971 33.5251 43.7671 33.5927 43.453C33.6538 43.1626 33.7507 42.8809 33.8811 42.6145C34.07 42.2188 34.4043 41.9118 34.814 41.758C34.9249 41.7197 35.0415 41.7006 35.1588 41.7015C35.1991 41.6987 35.2395 41.7033 35.2782 41.715C35.1244 41.7202 34.9724 41.7492 34.8275 41.8009C34.4405 41.9646 34.1286 42.2678 33.9532 42.6507C33.8314 42.9139 33.7414 43.1909 33.6851 43.4756C33.6242 43.7852 33.5611 44.1174 33.4935 44.4632C33.3538 45.1638 33.2006 45.9277 33.0429 46.7232C32.9347 47.2588 32.8288 47.7763 32.7319 48.2577L32.7049 48.199L35.3931 49.8013L36.1705 50.2759C36.2703 50.3311 36.3652 50.3946 36.4544 50.4657Z" fill="#263238"/>
<path d="M37.5563 46.3032C37.5762 46.5043 37.5701 46.7071 37.5383 46.9066C37.4911 47.3896 37.4052 47.8681 37.2814 48.3372C37.1577 48.8069 36.998 49.2663 36.8037 49.7113C36.7332 49.9006 36.6385 50.0798 36.522 50.2447C36.5772 50.0518 36.6457 49.863 36.7271 49.6797C37.0691 48.7804 37.3139 47.847 37.4572 46.8953C37.4777 46.6961 37.5108 46.4983 37.5563 46.3032Z" fill="#263238"/>
<path d="M18.0086 82.2437L17.9681 85.6924C17.9681 85.6924 14.4574 86.8111 14.3898 87.4484L21.0551 87.7648L21.3391 82.3928L18.0086 82.2437Z" fill="#455A64"/>
<path d="M20.0547 85.5003C20.1179 85.5229 20.1706 85.5682 20.2026 85.6274C20.2346 85.6867 20.2437 85.7557 20.2282 85.8212C20.2083 85.8856 20.1644 85.9399 20.1057 85.9728C20.0469 86.0056 19.9778 86.0144 19.9127 85.9975C19.8459 85.9729 19.7904 85.9245 19.7568 85.8616C19.7231 85.7987 19.7137 85.7256 19.7302 85.6562C19.7585 85.5915 19.8107 85.5403 19.8758 85.5134C19.9409 85.4864 20.0139 85.4858 20.0794 85.5116" fill="#E0E0E0"/>
<path d="M21.0551 87.7652V87.2228L14.6602 87.1211C14.6602 87.1211 14.356 87.2364 14.3808 87.4488L21.0551 87.7652Z" fill="#E0E0E0"/>
<path d="M17.8622 85.6543C17.8622 85.686 18.0244 85.7086 18.1776 85.8216C18.3309 85.9346 18.403 86.0747 18.4435 86.0634C18.4841 86.0521 18.4435 85.8623 18.243 85.7289C18.0424 85.5956 17.8554 85.6227 17.8622 85.6543Z" fill="#263238"/>
<path d="M17.1479 85.9097C17.1479 85.9414 17.2786 86.0046 17.3732 86.147C17.4678 86.2894 17.5016 86.4386 17.5354 86.4386C17.5692 86.4386 17.5963 86.2555 17.4633 86.0792C17.3304 85.9029 17.1501 85.8803 17.1479 85.9097Z" fill="#263238"/>
<path d="M16.7107 86.7299C16.74 86.7299 16.7941 86.5785 16.7107 86.3954C16.6273 86.2124 16.4854 86.1355 16.4719 86.1694C16.4583 86.2033 16.5462 86.296 16.6048 86.4474C16.6634 86.5988 16.6747 86.7254 16.7107 86.7299Z" fill="#263238"/>
<path d="M17.9568 84.8675C17.9703 84.8991 18.1213 84.8675 18.3061 84.881C18.4908 84.8946 18.6283 84.9692 18.6463 84.9421C18.6644 84.9149 18.5337 84.7906 18.3173 84.768C18.101 84.7454 17.9433 84.8426 17.9568 84.8675Z" fill="#263238"/>
<g opacity="0.3">
<path d="M18.0019 82.9263L17.9929 83.541L21.2715 83.6675L21.3008 83.1139L18.0019 82.9263Z" fill="black"/>
</g>
<path d="M17.9793 84.1716C18.0869 84.2075 18.2023 84.213 18.3128 84.1875C18.4342 84.1717 18.5531 84.1406 18.6666 84.0948C18.7344 84.0695 18.8 84.0385 18.8626 84.0021C18.9016 83.9839 18.9373 83.9595 18.9686 83.9298C18.9911 83.9075 19.0056 83.8782 19.0097 83.8467C19.0138 83.8152 19.0072 83.7832 18.9911 83.7558C18.9756 83.7324 18.9549 83.7129 18.9307 83.6988C18.9065 83.6847 18.8793 83.6763 18.8514 83.6744C18.809 83.6722 18.7665 83.676 18.7252 83.6857C18.6536 83.6996 18.5835 83.72 18.5156 83.7468C18.4009 83.793 18.2938 83.8562 18.1979 83.9343C18.0357 84.0722 17.9726 84.192 17.9884 84.1988C18.0041 84.2055 18.083 84.1106 18.2452 83.9999C18.3407 83.9361 18.4436 83.8845 18.5517 83.8462C18.6149 83.8246 18.6797 83.808 18.7455 83.7965C18.8176 83.7807 18.8784 83.7829 18.8942 83.8146C18.91 83.8462 18.8942 83.8326 18.8942 83.853C18.8709 83.874 18.8451 83.8922 18.8176 83.9072C18.7567 83.9411 18.6959 83.9728 18.6373 83.9999C18.5311 84.0459 18.421 84.0822 18.3083 84.1084C18.1974 84.1223 18.0875 84.1434 17.9793 84.1716Z" fill="#263238"/>
<path d="M18.0267 84.2216C18.0937 84.129 18.1292 84.0173 18.1281 83.9029C18.1406 83.7795 18.1314 83.6548 18.101 83.5345C18.0829 83.4627 18.0572 83.393 18.0244 83.3266C18.0086 83.2816 17.9813 83.2415 17.9454 83.2102C17.9095 83.1789 17.866 83.1575 17.8194 83.1481C17.7899 83.1469 17.7608 83.1545 17.7356 83.1697C17.7103 83.185 17.6901 83.2073 17.6774 83.2339C17.6575 83.2722 17.6438 83.3134 17.6368 83.356C17.6256 83.4309 17.6256 83.5071 17.6368 83.582C17.6492 83.7082 17.6925 83.8293 17.763 83.9345C17.8847 84.1153 18.0199 84.1605 18.0222 84.1492C18.0244 84.1379 17.923 84.0656 17.8306 83.8939C17.7778 83.7955 17.747 83.6867 17.7405 83.5752C17.7369 83.51 17.7422 83.4446 17.7563 83.3808C17.7698 83.3108 17.7991 83.2543 17.8261 83.2633C17.8532 83.2724 17.9117 83.3198 17.9365 83.3786C17.9671 83.4379 17.992 83.4999 18.0109 83.5639C18.0433 83.6732 18.0599 83.7866 18.0605 83.9006C18.0424 84.095 18.0019 84.2148 18.0267 84.2216Z" fill="#263238"/>
<path d="M31.5962 57.2686C31.5962 57.2686 21.1813 52.8843 17.9591 52.7012C15.9311 52.5837 14.4078 53.8854 14.6827 55.9827C14.8202 57.0336 17.6977 69.3167 17.6977 69.3167L22.0827 67.3098L19.9735 58.8145L28.5362 62.9865L31.5962 57.2686Z" fill="#263238"/>
<path d="M18.6644 56.6653C18.6306 56.6947 18.9753 57.1399 19.3404 57.7298C19.7054 58.3196 19.9488 58.8282 19.9893 58.8123C20.0299 58.7965 19.8429 58.2518 19.4711 57.6507C19.0993 57.0495 18.7027 56.6382 18.6644 56.6653Z" fill="#455A64"/>
<path d="M17.8126 57.1535C17.7901 57.1919 18.3151 57.5264 18.9393 57.9829C19.5634 58.4394 20.0321 58.8394 20.0659 58.8078C20.0997 58.7761 19.6491 58.3083 19.0226 57.8563C18.3962 57.4043 17.8306 57.1173 17.8126 57.1535Z" fill="#455A64"/>
<path d="M39.7195 59.9037C39.7195 59.9037 38.4103 61.5965 37.162 62.0598C35.5846 62.6406 23.989 68.1301 23.989 68.1301C23.989 68.1301 21.8844 83.8123 22.0511 83.1569L17.1952 83.0393L17.7225 68.5957C17.7856 66.747 19.2637 64.6226 20.8523 63.6779L31.5962 57.2686L39.7195 59.9037Z" fill="#263238"/>
<path d="M17.6301 71.24C17.6455 71.1749 17.6523 71.108 17.6504 71.0411C17.6504 70.8965 17.6684 70.7089 17.6796 70.4738C17.7072 69.7785 17.7719 69.0852 17.8734 68.3969C18.0157 67.3796 18.3754 66.4052 18.928 65.5403C19.2699 65.043 19.6918 64.6062 20.1763 64.2475C20.7022 63.8633 21.2524 63.5137 21.8235 63.2012C24.1602 61.8587 26.177 60.4892 27.6687 59.5513C28.4123 59.0767 29.0207 58.6992 29.4353 58.4416L29.9175 58.1433C29.9758 58.111 30.0309 58.0732 30.082 58.0303C30.0199 58.0528 29.9603 58.0816 29.904 58.1162C29.7891 58.1772 29.6201 58.2676 29.406 58.3896C28.9756 58.6314 28.3627 58.9976 27.6033 59.4586C26.0958 60.3762 24.0678 61.7299 21.7447 63.0746C21.1677 63.3908 20.6121 63.7449 20.0817 64.1345C19.585 64.5041 19.1538 64.9548 18.8063 65.4679C18.2505 66.3554 17.8958 67.3545 17.7675 68.3946C17.6747 69.0876 17.6266 69.7859 17.6233 70.4851C17.6233 70.7111 17.6233 70.9078 17.6233 71.0547C17.62 71.1165 17.6223 71.1785 17.6301 71.24Z" fill="#455A64"/>
<path d="M35.4337 61.5556C35.3437 61.4156 35.2443 61.282 35.1362 61.1556C34.9124 60.8291 34.757 60.4605 34.6795 60.072C34.6021 59.6835 34.6041 59.2832 34.6855 58.8956C34.7356 58.7365 34.7748 58.5741 34.8027 58.4097C34.6933 58.5405 34.6161 58.6954 34.5774 58.8617C34.462 59.263 34.445 59.6863 34.5278 60.0956C34.6087 60.505 34.7882 60.8883 35.0506 61.2121C35.2556 61.472 35.4246 61.5691 35.4337 61.5556Z" fill="#455A64"/>
<path d="M18.9798 83.0396C18.9878 83.0139 18.9923 82.9873 18.9933 82.9605C18.9933 82.8972 19.0114 82.8204 19.0226 82.7232C19.0474 82.4972 19.079 82.1989 19.1195 81.8192C19.1984 81.0146 19.3111 79.8688 19.4508 78.4586C19.5161 77.7489 19.5905 76.9715 19.6761 76.1375C19.7617 75.3036 19.8406 74.4109 19.9014 73.4707C19.9623 72.5306 20.0614 71.5475 20.2327 70.5327C20.3999 69.4918 20.703 68.4774 21.134 67.5156C21.5842 66.5654 22.1786 65.6909 22.8961 64.9234C23.5684 64.2095 24.3046 63.5589 25.0954 62.9798C26.4506 62.0226 27.8581 61.1421 29.3114 60.3424C30.5439 59.6328 31.5264 59.0271 32.1776 58.5706C32.5066 58.3446 32.7545 58.1615 32.9212 58.0327L33.1082 57.8858C33.1503 57.8526 33.1706 57.8346 33.1691 57.8315C33.144 57.8417 33.1205 57.8554 33.0992 57.8722L32.9032 58.0078C32.7319 58.1276 32.4773 58.3039 32.1461 58.5231C31.4836 58.9615 30.4966 59.5514 29.2573 60.2497C27.7922 61.0378 26.3746 61.9116 25.012 62.8668C24.2107 63.4473 23.4653 64.1018 22.7857 64.8217C22.0554 65.5995 21.4509 66.4871 20.9943 67.4524C20.5614 68.426 20.2584 69.4526 20.093 70.5056C19.924 71.5226 19.8383 72.5102 19.7685 73.4436C19.6986 74.377 19.6288 75.2765 19.5432 76.1104C19.4575 76.9444 19.4034 77.7218 19.3426 78.4337C19.2232 79.8462 19.1173 80.992 19.0609 81.7988C19.0309 82.1876 19.0084 82.4889 18.9933 82.7028C18.9933 82.8 18.9821 82.8791 18.9776 82.9401C18.9731 83.0012 18.9753 83.0396 18.9798 83.0396Z" fill="#455A64"/>
<path d="M30.42 32.395C30.2565 31.9726 29.9482 31.6226 29.5505 31.4076C29.1528 31.1926 28.6917 31.1268 28.25 31.2221C28.0557 31.2934 27.8525 31.3375 27.6461 31.3532C27.3961 31.3102 27.1502 31.2451 26.9116 31.1588C26.6411 31.1148 26.364 31.1733 26.1341 31.3228C25.9042 31.4724 25.738 31.7023 25.6677 31.9679C25.4561 31.9163 25.2357 31.9116 25.0221 31.9542C24.8084 31.9967 24.6066 32.0854 24.4306 32.2142C24.2581 32.3482 24.1356 32.5366 24.0828 32.749C24.0301 32.9614 24.0502 33.1854 24.14 33.3849C24.2278 33.5499 24.3653 33.681 24.4532 33.8505C24.5861 34.1284 24.5253 34.4629 24.6177 34.7545C24.7044 34.9665 24.8489 35.1497 25.0346 35.2832C25.2203 35.4167 25.4397 35.495 25.6677 35.5093C26.1265 35.533 26.5855 35.4677 27.0197 35.3172" fill="#263238"/>
<path d="M28.3221 41.3332C28.2658 40.8947 28.2298 40.5874 28.2298 40.5874C28.2298 40.5874 26.7764 40.5874 26.2018 38.7794C25.9111 37.8754 25.7173 36.3657 25.6001 35.1182C25.5745 34.8524 25.6028 34.5842 25.6833 34.3297C25.7638 34.0753 25.8949 33.8398 26.0686 33.6375C26.2423 33.4351 26.4551 33.2702 26.6941 33.1526C26.933 33.035 27.1933 32.9671 27.4591 32.9531L31.3168 32.752L31.4002 33.3509L32.4165 40.7908C32.4532 41.0605 32.4364 41.3349 32.3671 41.5981C32.2977 41.8613 32.1772 42.1082 32.0124 42.3245C31.8476 42.5408 31.6418 42.7224 31.4068 42.8586C31.1718 42.9949 30.9122 43.0832 30.6431 43.1186C30.3737 43.1548 30.0999 43.1372 29.8373 43.067C29.5747 42.9968 29.3285 42.8753 29.1129 42.7094C28.8972 42.5435 28.7164 42.3365 28.5807 42.1004C28.445 41.8642 28.3571 41.6035 28.3221 41.3332Z" fill="#FAB48A"/>
<path d="M26.1387 36.183C26.1482 36.2448 26.1812 36.3005 26.2307 36.3384C26.2803 36.3763 26.3426 36.3935 26.4046 36.3864C26.4352 36.3844 26.4652 36.3762 26.4926 36.3623C26.5199 36.3483 26.5442 36.3289 26.5638 36.3052C26.5834 36.2815 26.598 36.254 26.6067 36.2244C26.6153 36.1949 26.6179 36.1638 26.6141 36.1332C26.6057 36.0709 26.573 36.0145 26.5231 35.9764C26.4733 35.9382 26.4104 35.9215 26.3482 35.9298C26.3176 35.9318 26.2876 35.94 26.2602 35.9539C26.2328 35.9679 26.2086 35.9873 26.189 36.011C26.1693 36.0347 26.1547 36.0622 26.1461 36.0918C26.1374 36.1213 26.1349 36.1524 26.1387 36.183Z" fill="#263238"/>
<path d="M26.0395 35.8484C26.0733 35.8732 26.231 35.7128 26.4902 35.6721C26.7493 35.6314 26.9408 35.7309 26.9746 35.6947C27.0084 35.6585 26.9476 35.6269 26.8575 35.5817C26.7353 35.5216 26.5972 35.5018 26.4631 35.5252C26.3305 35.5451 26.2079 35.6077 26.1139 35.7037C26.0395 35.7761 26.0215 35.8371 26.0395 35.8484Z" fill="#263238"/>
<path d="M28.5542 35.7713C28.5637 35.833 28.5968 35.8885 28.6465 35.926C28.6961 35.9636 28.7584 35.9802 28.8201 35.9725C28.8508 35.9708 28.8808 35.9629 28.9082 35.9492C28.9357 35.9355 28.9601 35.9163 28.98 35.8928C28.9998 35.8693 29.0146 35.842 29.0236 35.8126C29.0325 35.7831 29.0354 35.7522 29.0319 35.7216C29.0224 35.6598 28.9894 35.6041 28.9399 35.5661C28.8903 35.5282 28.828 35.511 28.7661 35.5182C28.7352 35.5198 28.705 35.5278 28.6773 35.5416C28.6497 35.5555 28.6252 35.5749 28.6053 35.5986C28.5854 35.6223 28.5707 35.6499 28.5619 35.6796C28.5531 35.7093 28.5505 35.7405 28.5542 35.7713Z" fill="#263238"/>
<path d="M28.5497 35.4956C28.5835 35.5227 28.7413 35.36 29.0004 35.3216C29.2595 35.2832 29.4511 35.3781 29.4849 35.3419C29.5187 35.3058 29.4578 35.2764 29.3677 35.2289C29.2449 35.1708 29.1075 35.1511 28.9734 35.1724C28.8412 35.1938 28.719 35.2563 28.6241 35.351C28.5497 35.4233 28.534 35.482 28.5497 35.4956Z" fill="#263238"/>
<path d="M27.9256 37.5388C27.7842 37.5197 27.641 37.5197 27.4997 37.5388C27.4343 37.5388 27.3712 37.5388 27.3532 37.4959C27.3325 37.4305 27.3325 37.3602 27.3532 37.2948C27.3893 37.1275 27.4276 36.9512 27.4681 36.7682C27.5781 36.3189 27.6535 35.8618 27.6935 35.4009C27.5458 35.8432 27.4336 36.2967 27.3577 36.7569C27.3217 36.9422 27.2856 37.1185 27.2541 37.288C27.2226 37.3717 27.2226 37.4641 27.2541 37.5479C27.2672 37.5693 27.285 37.5875 27.306 37.6012C27.3271 37.6149 27.3509 37.6237 27.3757 37.627C27.4132 37.6317 27.451 37.6317 27.4884 37.627C27.6373 37.6163 27.7841 37.5866 27.9256 37.5388Z" fill="#263238"/>
<path d="M28.2298 40.5876C29.1006 40.4623 29.9197 40.0969 30.5958 39.5322C30.5958 39.5322 30.1947 40.9063 28.3221 41.0216L28.2298 40.5876Z" fill="#DD916B"/>
<path d="M28.703 37.5954C28.6601 37.5954 28.703 37.8757 28.5002 38.1107C28.2974 38.3458 27.9954 38.3616 27.9977 38.4C27.9999 38.4384 28.072 38.4452 28.1982 38.4271C28.3606 38.4052 28.5096 38.3249 28.6173 38.2011C28.7229 38.0839 28.7779 37.9295 28.7706 37.7717C28.7638 37.6542 28.721 37.5909 28.703 37.5954Z" fill="#263238"/>
<path d="M28.3244 34.5058C28.3605 34.5714 28.6106 34.5058 28.9148 34.4855C29.219 34.4651 29.4736 34.5171 29.5029 34.4493C29.5322 34.3815 29.4646 34.3589 29.3564 34.3069C29.213 34.2442 29.0571 34.2154 28.9008 34.2228C28.7444 34.2303 28.5919 34.2738 28.4551 34.3499C28.3559 34.4109 28.3086 34.4742 28.3244 34.5058Z" fill="#263238"/>
<path d="M26.0147 35.0932C26.0688 35.143 26.2401 35.0548 26.4451 35.0187C26.6502 34.9825 26.8417 34.9961 26.8733 34.9283C26.8868 34.8966 26.8485 34.8424 26.7628 34.8017C26.6476 34.7503 26.5192 34.7361 26.3955 34.761C26.2721 34.7828 26.1587 34.8429 26.0711 34.9328C26.0057 35.0051 25.9899 35.0684 26.0147 35.0932Z" fill="#263238"/>
<path d="M25.3973 34.3024C25.3973 34.3024 26.4181 34.6482 27.5898 33.8617C28.3582 33.3464 29.2911 33.0232 29.5232 33.1633C29.7553 33.3035 29.9062 34.1442 30.7512 34.2933C30.7512 34.2933 30.9 35.9205 31.5377 35.7804C31.9883 35.681 31.7269 33.8865 31.5377 32.8628C31.4981 32.6648 31.3936 32.4859 31.2409 32.3544C31.0882 32.2229 30.896 32.1465 30.6949 32.1373L29.5074 32.0898L28.0247 32.5057L26.4339 32.9396L25.2216 33.4481L25.3973 34.3024Z" fill="#263238"/>
<path d="M31.3957 35.1185C31.4182 35.1027 32.4029 34.5829 32.5855 35.6609C32.768 36.7389 31.6526 36.6983 31.6436 36.6689C31.6345 36.6395 31.3957 35.1185 31.3957 35.1185Z" fill="#FAB48A"/>
<path d="M31.9027 36.2033C31.9027 36.2033 31.9252 36.2146 31.959 36.2236C32.0065 36.2349 32.0564 36.2277 32.0987 36.2033C32.16 36.1471 32.2056 36.0759 32.2309 35.9966C32.2562 35.9173 32.2603 35.8327 32.2429 35.7513C32.2299 35.6586 32.1969 35.5699 32.1461 35.4914C32.1297 35.4596 32.106 35.4322 32.0771 35.4114C32.0481 35.3906 32.0146 35.3769 31.9793 35.3716C31.9569 35.3697 31.9346 35.3756 31.9161 35.3884C31.8976 35.4012 31.8841 35.42 31.8779 35.4417C31.8779 35.4733 31.8779 35.4937 31.8779 35.4982C31.8779 35.5027 31.8531 35.4824 31.8531 35.4372C31.855 35.4095 31.8661 35.3832 31.8847 35.3626C31.9107 35.3353 31.9462 35.3191 31.9838 35.3174C32.0296 35.3182 32.0745 35.331 32.114 35.3543C32.1534 35.3777 32.1862 35.4109 32.2091 35.4507C32.2708 35.5361 32.3103 35.6355 32.3241 35.74C32.3464 35.8351 32.3399 35.9348 32.3054 36.0262C32.2709 36.1176 32.2099 36.1966 32.1303 36.253C32.1028 36.2661 32.0728 36.2729 32.0424 36.2729C32.012 36.2729 31.982 36.2661 31.9545 36.253C31.9095 36.2304 31.9004 36.2078 31.9027 36.2033Z" fill="#DD916B"/>
<path d="M25.9133 31.5702C25.9133 31.5702 25.9494 31.6289 26.026 31.7148C26.1357 31.8366 26.2757 31.9271 26.4316 31.977C26.6633 32.052 26.9108 32.063 27.1482 32.0086C27.4433 31.9367 27.7331 31.8445 28.0157 31.7329C28.3082 31.6174 28.6207 31.5613 28.9351 31.5679C29.2009 31.5775 29.4524 31.6911 29.6358 31.8843C29.7608 32.0104 29.8367 32.1771 29.8499 32.3544C29.8593 32.4187 29.8482 32.4843 29.8184 32.542C29.8071 32.542 29.8184 32.4742 29.8048 32.3589C29.7767 32.1988 29.6977 32.0521 29.5795 31.9408C29.4059 31.7739 29.1755 31.6794 28.9351 31.6764C28.635 31.6766 28.3377 31.7334 28.0585 31.8436C27.7712 31.9582 27.475 32.049 27.1729 32.1148C26.9179 32.1678 26.6531 32.1474 26.4091 32.0561C26.2434 31.9951 26.0992 31.8866 25.9945 31.7442C25.9133 31.6402 25.9133 31.5724 25.9133 31.5702Z" fill="#455A64"/>
<path d="M29.5435 32.603C29.5435 32.603 29.4894 32.5465 29.3767 32.4674C29.216 32.3688 29.0311 32.3172 28.8427 32.3183C28.557 32.3172 28.2754 32.3863 28.0225 32.5194C27.7063 32.6907 27.3797 32.8416 27.0445 32.9714C26.7265 33.0704 26.3916 33.1028 26.0606 33.0667C25.7296 33.0305 25.4095 32.9266 25.1202 32.7612C24.9451 32.6625 24.785 32.5392 24.6447 32.3951C24.5901 32.3461 24.5443 32.288 24.5095 32.2234C24.709 32.4002 24.9265 32.5555 25.1585 32.6867C25.7283 32.9866 26.393 33.0491 27.0085 32.8607C27.3389 32.7266 27.6623 32.5757 27.9774 32.4087C28.2463 32.2722 28.5461 32.2083 28.8472 32.2234C29.0518 32.2312 29.2488 32.3031 29.4105 32.429C29.4696 32.474 29.5156 32.5341 29.5435 32.603Z" fill="#455A64"/>
<path d="M26.2063 50.9677L20.974 46.4951L19.248 46.8861C19.248 46.8861 21.0664 50.6784 22.3824 52.0683C22.3824 52.0683 23.6825 53.813 25.8277 53.0582C27.9729 52.3033 26.2063 50.9677 26.2063 50.9677Z" fill="#FAB48A"/>
<path d="M20.5774 41.5684H18.3534C18.2695 41.5729 18.1876 41.5962 18.1138 41.6365C18.04 41.6768 17.976 41.733 17.9266 41.8012C17.8772 41.8694 17.8435 41.9478 17.8281 42.0306C17.8126 42.1135 17.8158 42.1988 17.8374 42.2803L20.0749 46.6488C20.1174 46.732 20.1819 46.8018 20.2615 46.8505C20.341 46.8992 20.4324 46.9248 20.5256 46.9246H23.2296C23.2932 46.9175 23.354 46.8947 23.4067 46.8583C23.4593 46.8218 23.5022 46.7729 23.5314 46.7159C23.5606 46.6588 23.5753 46.5954 23.5742 46.5312C23.573 46.4671 23.5561 46.4042 23.5248 46.3483L21.3684 42.0701C21.2949 41.9218 21.1824 41.7967 21.0429 41.7082C20.9034 41.6197 20.7424 41.5714 20.5774 41.5684Z" fill="#455A64"/>
<path d="M20.4287 41.833H18.2047C18.1408 41.8326 18.078 41.8487 18.0222 41.8797C17.9663 41.9108 17.9194 41.9557 17.8859 42.0102C17.8524 42.0647 17.8334 42.1269 17.8309 42.1909C17.8283 42.2548 17.8422 42.3184 17.8712 42.3754L20.0547 46.6491C20.0975 46.7319 20.1621 46.8015 20.2416 46.8501C20.321 46.8987 20.4123 46.9245 20.5053 46.9248H23.1868C23.2236 46.9233 23.2595 46.9127 23.2913 46.894C23.3231 46.8753 23.3498 46.8491 23.3692 46.8177C23.3885 46.7862 23.3999 46.7505 23.4023 46.7136C23.4046 46.6767 23.398 46.6398 23.3828 46.6061L21.2241 42.3302C21.1512 42.181 21.038 42.0553 20.8974 41.9674C20.7568 41.8795 20.5944 41.833 20.4287 41.833Z" fill="#263238"/>
<path d="M20.2394 43.6182L18.8874 44.1606L18.599 45.2544L19.2502 46.8816L21.632 47.2342L20.9335 46.5177L21.0213 45.8917C21.0213 45.8917 21.6973 45.6815 21.6973 45.5798C21.6973 45.4781 21.614 45.1278 21.5126 45.1165C21.2458 45.1776 20.9843 45.26 20.7307 45.3629C20.7307 45.3629 21.5576 44.7052 21.5351 44.599C21.5126 44.4928 21.4224 44.2238 21.2579 44.1922C21.0934 44.1606 19.755 44.7956 19.755 44.7956L19.5296 45.2906L19.3404 44.4973C19.3404 44.4973 20.5324 44.1628 20.2394 43.6182Z" fill="#FAB48A"/>
<path d="M20.4107 46.1856C20.4107 46.1856 20.3769 46.1404 20.3634 46.05C20.3491 45.9349 20.3621 45.818 20.4013 45.7089C20.4404 45.5997 20.5046 45.5014 20.5887 45.4217C20.6563 45.363 20.7081 45.3426 20.7126 45.3494C20.6098 45.4636 20.5254 45.5932 20.4625 45.7336C20.4224 45.8807 20.4049 46.0332 20.4107 46.1856Z" fill="#DD916B"/>
<path d="M19.7662 45.9483C19.7926 45.8314 19.8107 45.7128 19.8203 45.5934C19.8258 45.46 19.8485 45.3278 19.8879 45.2002C19.9137 45.1183 19.9586 45.0437 20.019 44.9827C20.0793 44.9218 20.1534 44.8762 20.2349 44.8499C20.5572 44.7324 20.8501 44.6375 21.0619 44.5674C21.1752 44.5245 21.2921 44.4919 21.4112 44.4702C21.3063 44.5303 21.1952 44.5787 21.0799 44.6149C20.8704 44.6962 20.5774 44.8002 20.2597 44.9154C20.1855 44.9411 20.1178 44.9827 20.0614 45.0375C20.0114 45.0907 19.973 45.1538 19.9488 45.2228C19.9075 45.345 19.881 45.4717 19.8699 45.6002C19.8655 45.7232 19.8298 45.843 19.7662 45.9483Z" fill="#DD916B"/>
<path d="M19.4553 45.704C19.434 45.6157 19.434 45.5235 19.4553 45.4351C19.4801 45.2905 19.5139 45.1775 19.5341 45.1797C19.5553 45.2681 19.5553 45.3603 19.5341 45.4487C19.5094 45.5933 19.4756 45.7063 19.4553 45.704Z" fill="#DD916B"/>
<path d="M19.4192 42.6578C19.4192 42.7141 19.4359 42.7692 19.4671 42.816C19.4983 42.8628 19.5426 42.8993 19.5945 42.9209C19.6464 42.9425 19.7035 42.9481 19.7585 42.9371C19.8136 42.9261 19.8642 42.899 19.9039 42.8592C19.9436 42.8193 19.9707 42.7686 19.9816 42.7134C19.9926 42.6581 19.9869 42.6009 19.9654 42.5488C19.944 42.4968 19.9076 42.4523 19.8609 42.421C19.8142 42.3898 19.7593 42.3731 19.7031 42.3731C19.6658 42.3728 19.6287 42.3799 19.5941 42.3941C19.5596 42.4083 19.5281 42.4293 19.5017 42.4558C19.4753 42.4823 19.4544 42.5138 19.4402 42.5485C19.4261 42.5832 19.4189 42.6203 19.4192 42.6578Z" fill="#FAFAFA"/>
<path d="M11.6272 85.7356C11.9801 85.8453 12.3074 86.0253 12.5892 86.2649C12.8711 86.5045 13.1019 86.7988 13.2676 87.13C13.5961 87.7954 13.768 88.5276 13.7701 89.2702C13.8152 90.6985 13.2248 92.2353 12.5285 93.4851C11.1968 92.6263 10.665 90.8522 10.4487 89.9482C10.1107 88.5063 10.3698 85.6949 11.6272 85.7333" fill="#00A08D"/>
<path d="M14.2388 95.6096C14.1 95.2192 14.0665 94.7989 14.1417 94.3914C14.2168 93.9838 14.398 93.6034 14.6669 93.2886C14.9414 92.9789 15.2746 92.7272 15.6472 92.5483C16.0198 92.3694 16.4243 92.2669 16.8369 92.2467C17.2155 92.2196 17.6391 92.2693 17.8982 92.5496C18.0121 92.6875 18.0872 92.8535 18.1157 93.0303C18.1442 93.2071 18.1252 93.3883 18.0605 93.5553C17.9258 93.8878 17.7058 94.1786 17.4228 94.3983C16.4921 95.1938 15.4466 95.7904 14.2388 95.6096Z" fill="#00A08D"/>
<path d="M13.351 100.145C13.3408 100.048 13.3408 99.9492 13.351 99.8515C13.351 99.6414 13.369 99.3724 13.3803 99.0492C13.3891 98.159 13.5413 97.276 13.831 96.4344C14.1339 95.5912 14.6549 94.844 15.3407 94.2693C15.5488 94.1006 15.7756 93.9565 16.0167 93.8399C16.1023 93.797 16.1744 93.7767 16.2195 93.7563C16.2646 93.736 16.2916 93.7315 16.2938 93.736C15.7379 94.0117 15.2421 94.3954 14.8352 94.8649C14.4283 95.3343 14.1183 95.8801 13.9233 96.4706C13.6414 97.3038 13.4842 98.1743 13.4569 99.0538C13.4344 99.3905 13.4141 99.664 13.3961 99.8538C13.3891 99.9521 13.374 100.05 13.351 100.145Z" fill="#263238"/>
<path d="M11.6182 87.894C11.6317 87.9347 11.6422 87.9762 11.6497 88.0183C11.6693 88.1118 11.694 88.2315 11.7241 88.3777C11.7872 88.6896 11.8728 89.1438 11.972 89.7043C12.1725 90.8343 12.4226 92.3824 12.6682 94.1045C12.9139 95.8266 13.0964 97.3906 13.2135 98.5251C13.2721 99.0923 13.3149 99.5511 13.342 99.8698C13.3525 100.02 13.3615 100.142 13.369 100.236C13.3755 100.278 13.3755 100.321 13.369 100.362C13.3578 100.321 13.3502 100.279 13.3465 100.236C13.3352 100.143 13.3195 100.023 13.2992 99.872C13.2586 99.5443 13.2045 99.0901 13.1369 98.5341C13.0017 97.4041 12.8057 95.8402 12.5646 94.1181C12.3235 92.396 12.0801 90.8524 11.8999 89.7224C11.8097 89.1687 11.7376 88.7167 11.6745 88.389C11.652 88.2398 11.634 88.12 11.6182 88.0274C11.6123 87.9831 11.6123 87.9383 11.6182 87.894Z" fill="#263238"/>
<path d="M12.319 96.7644C12.0539 95.9336 11.5954 95.178 10.9814 94.5602C10.3673 93.9425 9.61549 93.4802 8.788 93.2117C8.36437 93.0783 7.83258 93.0309 7.54866 93.3721C7.26474 93.7134 7.41797 94.2332 7.63654 94.6196C8.10668 95.418 8.80215 96.0588 9.63513 96.461C10.4681 96.8633 11.4012 97.0089 12.3167 96.8796" fill="#00A08D"/>
<path d="M9.1643 94.5181C9.25494 94.534 9.34394 94.5582 9.4302 94.5904C9.53379 94.6209 9.63538 94.6579 9.7344 94.7011C9.85157 94.7531 9.98902 94.7983 10.1287 94.8751C10.2832 94.9509 10.4336 95.0347 10.5794 95.126C10.751 95.2296 10.9172 95.342 11.0774 95.4627C11.8148 96.0182 12.4058 96.7459 12.7989 97.5826C12.8844 97.7643 12.9596 97.9507 13.0243 98.1408C13.0835 98.3048 13.1324 98.4724 13.1707 98.6426C13.2057 98.7825 13.2328 98.9244 13.2519 99.0674C13.2714 99.1743 13.2842 99.2822 13.2902 99.3906C13.2995 99.4822 13.301 99.5745 13.2947 99.6663C13.2699 99.6663 13.2541 99.2708 13.0941 98.6584C13.0515 98.4924 13.0003 98.3287 12.9409 98.168C12.8762 97.9815 12.801 97.7989 12.7156 97.621C12.5157 97.2194 12.2732 96.8405 11.9922 96.491C11.7033 96.1429 11.3785 95.8262 11.0233 95.5464C10.8677 95.4258 10.706 95.3135 10.5388 95.2096C10.3934 95.1149 10.243 95.0281 10.0882 94.9497C9.5361 94.6491 9.15529 94.5384 9.1643 94.5181Z" fill="#263238"/>
</svg>
